<?xml version="1.0" encoding="utf-8" standalone="no"?>
<!DOCTYPE svg PUBLIC "-//W3C//DTD SVG 1.1//EN"
  "http://www.w3.org/Graphics/SVG/1.1/DTD/svg11.dtd">
<!-- Created with matplotlib (https://matplotlib.org/) -->
<svg height="288pt" version="1.1" viewBox="0 0 368.45 288" width="368.45pt" xmlns="http://www.w3.org/2000/svg" xmlns:xlink="http://www.w3.org/1999/xlink">
 <defs>
  <style type="text/css">
*{stroke-linecap:butt;stroke-linejoin:round;}
  </style>
 </defs>
 <g id="figure_1">
  <g id="patch_1">
   <path d="M 0 288 
L 368.45 288 
L 368.45 0 
L 0 0 
z
" style="fill:#ffffff;"/>
  </g>
  <g id="axes_1">
   <g id="patch_2">
    <path d="M 107.087978 212.230949 
L 284.3155 212.230949 
L 284.3155 35.003426 
L 107.087978 35.003426 
z
" style="fill:#ffffff;"/>
   </g>
   <g id="matplotlib.axis_1">
    <g id="xtick_1">
     <g id="text_1">
      <!-- −5 -->
      <defs>
       <path d="M 52.828125 31.203125 
L 5.5625 31.203125 
L 5.5625 39.40625 
L 52.828125 39.40625 
z
" id="ArialMT-8722"/>
       <path d="M 4.15625 18.75 
L 13.375 19.53125 
Q 14.40625 12.796875 18.140625 9.390625 
Q 21.875 6 27.15625 6 
Q 33.5 6 37.890625 10.78125 
Q 42.28125 15.578125 42.28125 23.484375 
Q 42.28125 31 38.0625 35.34375 
Q 33.84375 39.703125 27 39.703125 
Q 22.75 39.703125 19.328125 37.765625 
Q 15.921875 35.84375 13.96875 32.765625 
L 5.71875 33.84375 
L 12.640625 70.609375 
L 48.25 70.609375 
L 48.25 62.203125 
L 19.671875 62.203125 
L 15.828125 42.96875 
Q 22.265625 47.46875 29.34375 47.46875 
Q 38.71875 47.46875 45.15625 40.96875 
Q 51.609375 34.46875 51.609375 24.265625 
Q 51.609375 14.546875 45.953125 7.46875 
Q 39.0625 -1.21875 27.15625 -1.21875 
Q 17.390625 -1.21875 11.203125 4.25 
Q 5.03125 9.71875 4.15625 18.75 
z
" id="ArialMT-53"/>
      </defs>
      <g style="fill:#262626;" transform="translate(130.911849 233.541339)scale(0.165 -0.165)">
       <use xlink:href="#ArialMT-8722"/>
       <use x="58.398438" xlink:href="#ArialMT-53"/>
      </g>
     </g>
    </g>
    <g id="xtick_2">
     <g id="text_2">
      <!-- 0 -->
      <defs>
       <path d="M 4.15625 35.296875 
Q 4.15625 48 6.765625 55.734375 
Q 9.375 63.484375 14.515625 67.671875 
Q 19.671875 71.875 27.484375 71.875 
Q 33.25 71.875 37.59375 69.546875 
Q 41.9375 67.234375 44.765625 62.859375 
Q 47.609375 58.5 49.21875 52.21875 
Q 50.828125 45.953125 50.828125 35.296875 
Q 50.828125 22.703125 48.234375 14.96875 
Q 45.65625 7.234375 40.5 3 
Q 35.359375 -1.21875 27.484375 -1.21875 
Q 17.140625 -1.21875 11.234375 6.203125 
Q 4.15625 15.140625 4.15625 35.296875 
z
M 13.1875 35.296875 
Q 13.1875 17.671875 17.3125 11.828125 
Q 21.4375 6 27.484375 6 
Q 33.546875 6 37.671875 11.859375 
Q 41.796875 17.71875 41.796875 35.296875 
Q 41.796875 52.984375 37.671875 58.78125 
Q 33.546875 64.59375 27.390625 64.59375 
Q 21.34375 64.59375 17.71875 59.46875 
Q 13.1875 52.9375 13.1875 35.296875 
z
" id="ArialMT-48"/>
      </defs>
      <g style="fill:#262626;" transform="translate(191.113965 233.541339)scale(0.165 -0.165)">
       <use xlink:href="#ArialMT-48"/>
      </g>
     </g>
    </g>
    <g id="xtick_3">
     <g id="text_3">
      <!-- 5 -->
      <g style="fill:#262626;" transform="translate(246.497566 233.541339)scale(0.165 -0.165)">
       <use xlink:href="#ArialMT-53"/>
      </g>
     </g>
    </g>
    <g id="text_4">
     <!-- delBE_dft -->
     <defs>
      <path d="M 40.234375 0 
L 40.234375 6.546875 
Q 35.296875 -1.171875 25.734375 -1.171875 
Q 19.53125 -1.171875 14.328125 2.25 
Q 9.125 5.671875 6.265625 11.796875 
Q 3.421875 17.921875 3.421875 25.875 
Q 3.421875 33.640625 6 39.96875 
Q 8.59375 46.296875 13.765625 49.65625 
Q 18.953125 53.03125 25.34375 53.03125 
Q 30.03125 53.03125 33.6875 51.046875 
Q 37.359375 49.078125 39.65625 45.90625 
L 39.65625 71.578125 
L 48.390625 71.578125 
L 48.390625 0 
z
M 12.453125 25.875 
Q 12.453125 15.921875 16.640625 10.984375 
Q 20.84375 6.0625 26.5625 6.0625 
Q 32.328125 6.0625 36.34375 10.765625 
Q 40.375 15.484375 40.375 25.140625 
Q 40.375 35.796875 36.265625 40.765625 
Q 32.171875 45.75 26.171875 45.75 
Q 20.3125 45.75 16.375 40.96875 
Q 12.453125 36.1875 12.453125 25.875 
z
" id="ArialMT-100"/>
      <path d="M 42.09375 16.703125 
L 51.171875 15.578125 
Q 49.03125 7.625 43.21875 3.21875 
Q 37.40625 -1.171875 28.375 -1.171875 
Q 17 -1.171875 10.328125 5.828125 
Q 3.65625 12.84375 3.65625 25.484375 
Q 3.65625 38.578125 10.390625 45.796875 
Q 17.140625 53.03125 27.875 53.03125 
Q 38.28125 53.03125 44.875 45.953125 
Q 51.46875 38.875 51.46875 26.03125 
Q 51.46875 25.25 51.421875 23.6875 
L 12.75 23.6875 
Q 13.234375 15.140625 17.578125 10.59375 
Q 21.921875 6.0625 28.421875 6.0625 
Q 33.25 6.0625 36.671875 8.59375 
Q 40.09375 11.140625 42.09375 16.703125 
z
M 13.234375 30.90625 
L 42.1875 30.90625 
Q 41.609375 37.453125 38.875 40.71875 
Q 34.671875 45.796875 27.984375 45.796875 
Q 21.921875 45.796875 17.796875 41.75 
Q 13.671875 37.703125 13.234375 30.90625 
z
" id="ArialMT-101"/>
      <path d="M 6.390625 0 
L 6.390625 71.578125 
L 15.1875 71.578125 
L 15.1875 0 
z
" id="ArialMT-108"/>
      <path d="M 7.328125 0 
L 7.328125 71.578125 
L 34.1875 71.578125 
Q 42.390625 71.578125 47.34375 69.40625 
Q 52.296875 67.234375 55.09375 62.71875 
Q 57.90625 58.203125 57.90625 53.265625 
Q 57.90625 48.6875 55.421875 44.625 
Q 52.9375 40.578125 47.90625 38.09375 
Q 54.390625 36.1875 57.875 31.59375 
Q 61.375 27 61.375 20.75 
Q 61.375 15.71875 59.25 11.390625 
Q 57.125 7.078125 54 4.734375 
Q 50.875 2.390625 46.15625 1.1875 
Q 41.453125 0 34.625 0 
z
M 16.796875 41.5 
L 32.28125 41.5 
Q 38.578125 41.5 41.3125 42.328125 
Q 44.921875 43.40625 46.75 45.890625 
Q 48.578125 48.390625 48.578125 52.15625 
Q 48.578125 55.71875 46.875 58.421875 
Q 45.171875 61.140625 41.984375 62.140625 
Q 38.8125 63.140625 31.109375 63.140625 
L 16.796875 63.140625 
z
M 16.796875 8.453125 
L 34.625 8.453125 
Q 39.203125 8.453125 41.0625 8.796875 
Q 44.34375 9.375 46.53125 10.734375 
Q 48.734375 12.109375 50.140625 14.71875 
Q 51.5625 17.328125 51.5625 20.75 
Q 51.5625 24.75 49.515625 27.703125 
Q 47.46875 30.671875 43.828125 31.859375 
Q 40.1875 33.0625 33.34375 33.0625 
L 16.796875 33.0625 
z
" id="ArialMT-66"/>
      <path d="M 7.90625 0 
L 7.90625 71.578125 
L 59.671875 71.578125 
L 59.671875 63.140625 
L 17.390625 63.140625 
L 17.390625 41.21875 
L 56.984375 41.21875 
L 56.984375 32.8125 
L 17.390625 32.8125 
L 17.390625 8.453125 
L 61.328125 8.453125 
L 61.328125 0 
z
" id="ArialMT-69"/>
      <path d="M -1.515625 -19.875 
L -1.515625 -13.53125 
L 56.734375 -13.53125 
L 56.734375 -19.875 
z
" id="ArialMT-95"/>
      <path d="M 8.6875 0 
L 8.6875 45.015625 
L 0.921875 45.015625 
L 0.921875 51.859375 
L 8.6875 51.859375 
L 8.6875 57.375 
Q 8.6875 62.59375 9.625 65.140625 
Q 10.890625 68.5625 14.078125 70.671875 
Q 17.28125 72.796875 23.046875 72.796875 
Q 26.765625 72.796875 31.25 71.921875 
L 29.9375 64.265625 
Q 27.203125 64.75 24.75 64.75 
Q 20.75 64.75 19.09375 63.03125 
Q 17.4375 61.328125 17.4375 56.640625 
L 17.4375 51.859375 
L 27.546875 51.859375 
L 27.546875 45.015625 
L 17.4375 45.015625 
L 17.4375 0 
z
" id="ArialMT-102"/>
      <path d="M 25.78125 7.859375 
L 27.046875 0.09375 
Q 23.34375 -0.6875 20.40625 -0.6875 
Q 15.625 -0.6875 12.984375 0.828125 
Q 10.359375 2.34375 9.28125 4.8125 
Q 8.203125 7.28125 8.203125 15.1875 
L 8.203125 45.015625 
L 1.765625 45.015625 
L 1.765625 51.859375 
L 8.203125 51.859375 
L 8.203125 64.703125 
L 16.9375 69.96875 
L 16.9375 51.859375 
L 25.78125 51.859375 
L 25.78125 45.015625 
L 16.9375 45.015625 
L 16.9375 14.703125 
Q 16.9375 10.9375 17.40625 9.859375 
Q 17.875 8.796875 18.921875 8.15625 
Q 19.96875 7.515625 21.921875 7.515625 
Q 23.390625 7.515625 25.78125 7.859375 
z
" id="ArialMT-116"/>
     </defs>
     <g style="fill:#262626;" transform="translate(156.675489 253.924152)scale(0.18 -0.18)">
      <use xlink:href="#ArialMT-100"/>
      <use x="55.615234" xlink:href="#ArialMT-101"/>
      <use x="111.230469" xlink:href="#ArialMT-108"/>
      <use x="133.447266" xlink:href="#ArialMT-66"/>
      <use x="200.146484" xlink:href="#ArialMT-69"/>
      <use x="266.845703" xlink:href="#ArialMT-95"/>
      <use x="322.460938" xlink:href="#ArialMT-100"/>
      <use x="378.076172" xlink:href="#ArialMT-102"/>
      <use x="405.859375" xlink:href="#ArialMT-116"/>
     </g>
    </g>
   </g>
   <g id="matplotlib.axis_2">
    <g id="ytick_1">
     <g id="text_5">
      <!-- −5 -->
      <g style="fill:#262626;" transform="translate(78.775399 184.905984)scale(0.165 -0.165)">
       <use xlink:href="#ArialMT-8722"/>
       <use x="58.398438" xlink:href="#ArialMT-53"/>
      </g>
     </g>
    </g>
    <g id="ytick_2">
     <g id="text_6">
      <!-- 0 -->
      <g style="fill:#262626;" transform="translate(88.412431 129.522383)scale(0.165 -0.165)">
       <use xlink:href="#ArialMT-48"/>
      </g>
     </g>
    </g>
    <g id="ytick_3">
     <g id="text_7">
      <!-- 5 -->
      <g style="fill:#262626;" transform="translate(88.412431 74.138782)scale(0.165 -0.165)">
       <use xlink:href="#ArialMT-53"/>
      </g>
     </g>
    </g>
    <g id="text_8">
     <!-- delBE_alc -->
     <defs>
      <path d="M 40.4375 6.390625 
Q 35.546875 2.25 31.03125 0.53125 
Q 26.515625 -1.171875 21.34375 -1.171875 
Q 12.796875 -1.171875 8.203125 3 
Q 3.609375 7.171875 3.609375 13.671875 
Q 3.609375 17.484375 5.34375 20.625 
Q 7.078125 23.78125 9.890625 25.6875 
Q 12.703125 27.59375 16.21875 28.5625 
Q 18.796875 29.25 24.03125 29.890625 
Q 34.671875 31.15625 39.703125 32.90625 
Q 39.75 34.71875 39.75 35.203125 
Q 39.75 40.578125 37.25 42.78125 
Q 33.890625 45.75 27.25 45.75 
Q 21.046875 45.75 18.09375 43.578125 
Q 15.140625 41.40625 13.71875 35.890625 
L 5.125 37.0625 
Q 6.296875 42.578125 8.984375 45.96875 
Q 11.671875 49.359375 16.75 51.1875 
Q 21.828125 53.03125 28.515625 53.03125 
Q 35.15625 53.03125 39.296875 51.46875 
Q 43.453125 49.90625 45.40625 47.53125 
Q 47.359375 45.171875 48.140625 41.546875 
Q 48.578125 39.3125 48.578125 33.453125 
L 48.578125 21.734375 
Q 48.578125 9.46875 49.140625 6.21875 
Q 49.703125 2.984375 51.375 0 
L 42.1875 0 
Q 40.828125 2.734375 40.4375 6.390625 
z
M 39.703125 26.03125 
Q 34.90625 24.078125 25.34375 22.703125 
Q 19.921875 21.921875 17.671875 20.9375 
Q 15.4375 19.96875 14.203125 18.09375 
Q 12.984375 16.21875 12.984375 13.921875 
Q 12.984375 10.40625 15.640625 8.0625 
Q 18.3125 5.71875 23.4375 5.71875 
Q 28.515625 5.71875 32.46875 7.9375 
Q 36.421875 10.15625 38.28125 14.015625 
Q 39.703125 17 39.703125 22.796875 
z
" id="ArialMT-97"/>
      <path d="M 40.4375 19 
L 49.078125 17.875 
Q 47.65625 8.9375 41.8125 3.875 
Q 35.984375 -1.171875 27.484375 -1.171875 
Q 16.84375 -1.171875 10.375 5.78125 
Q 3.90625 12.75 3.90625 25.734375 
Q 3.90625 34.125 6.6875 40.421875 
Q 9.46875 46.734375 15.15625 49.875 
Q 20.84375 53.03125 27.546875 53.03125 
Q 35.984375 53.03125 41.359375 48.75 
Q 46.734375 44.484375 48.25 36.625 
L 39.703125 35.296875 
Q 38.484375 40.53125 35.375 43.15625 
Q 32.28125 45.796875 27.875 45.796875 
Q 21.234375 45.796875 17.078125 41.03125 
Q 12.9375 36.28125 12.9375 25.984375 
Q 12.9375 15.53125 16.9375 10.796875 
Q 20.953125 6.0625 27.390625 6.0625 
Q 32.5625 6.0625 36.03125 9.234375 
Q 39.5 12.40625 40.4375 19 
z
" id="ArialMT-99"/>
     </defs>
     <g style="fill:#262626;" transform="translate(71.197899 164.1425)rotate(-90)scale(0.18 -0.18)">
      <use xlink:href="#ArialMT-100"/>
      <use x="55.615234" xlink:href="#ArialMT-101"/>
      <use x="111.230469" xlink:href="#ArialMT-108"/>
      <use x="133.447266" xlink:href="#ArialMT-66"/>
      <use x="200.146484" xlink:href="#ArialMT-69"/>
      <use x="266.845703" xlink:href="#ArialMT-95"/>
      <use x="322.460938" xlink:href="#ArialMT-97"/>
      <use x="378.076172" xlink:href="#ArialMT-108"/>
      <use x="400.292969" xlink:href="#ArialMT-99"/>
     </g>
    </g>
   </g>
   <g id="PathCollection_1">
    <defs>
     <path d="M 0 3 
C 0.795609 3 1.55874 2.683901 2.12132 2.12132 
C 2.683901 1.55874 3 0.795609 3 0 
C 3 -0.795609 2.683901 -1.55874 2.12132 -2.12132 
C 1.55874 -2.683901 0.795609 -3 0 -3 
C -0.795609 -3 -1.55874 -2.683901 -2.12132 -2.12132 
C -2.683901 -1.55874 -3 -0.795609 -3 0 
C -3 0.795609 -2.683901 1.55874 -2.12132 2.12132 
C -1.55874 2.683901 -0.795609 3 0 3 
z
" id="m19d730d6fe" style="stroke:#1a1a1a;"/>
    </defs>
    <g clip-path="url(#pf77b5c6053)">
     <use style="fill:#4c72b0;stroke:#1a1a1a;" x="202.24143" xlink:href="#m19d730d6fe" y="109.602921"/>
     <use style="fill:#4c72b0;stroke:#1a1a1a;" x="188.948963" xlink:href="#m19d730d6fe" y="130.09153"/>
     <use style="fill:#4c72b0;stroke:#1a1a1a;" x="187.920631" xlink:href="#m19d730d6fe" y="128.325901"/>
     <use style="fill:#4c72b0;stroke:#1a1a1a;" x="201.237071" xlink:href="#m19d730d6fe" y="109.215236"/>
     <use style="fill:#4c72b0;stroke:#1a1a1a;" x="216.772493" xlink:href="#m19d730d6fe" y="77.637722"/>
     <use style="fill:#4c72b0;stroke:#1a1a1a;" x="174.116207" xlink:href="#m19d730d6fe" y="153.858849"/>
     <use style="fill:#4c72b0;stroke:#1a1a1a;" x="183.161617" xlink:href="#m19d730d6fe" y="138.062338"/>
     <use style="fill:#4c72b0;stroke:#1a1a1a;" x="166.526179" xlink:href="#m19d730d6fe" y="175.133905"/>
     <use style="fill:#4c72b0;stroke:#1a1a1a;" x="205.36123" xlink:href="#m19d730d6fe" y="108.496357"/>
     <use style="fill:#4c72b0;stroke:#1a1a1a;" x="194.177046" xlink:href="#m19d730d6fe" y="125.249896"/>
     <use style="fill:#4c72b0;stroke:#1a1a1a;" x="191.095829" xlink:href="#m19d730d6fe" y="122.405394"/>
     <use style="fill:#4c72b0;stroke:#1a1a1a;" x="176.198282" xlink:href="#m19d730d6fe" y="153.369258"/>
     <use style="fill:#4c72b0;stroke:#1a1a1a;" x="203.921381" xlink:href="#m19d730d6fe" y="96.012893"/>
     <use style="fill:#4c72b0;stroke:#1a1a1a;" x="174.260118" xlink:href="#m19d730d6fe" y="157.85976"/>
     <use style="fill:#4c72b0;stroke:#1a1a1a;" x="177.608218" xlink:href="#m19d730d6fe" y="151.221482"/>
     <use style="fill:#4c72b0;stroke:#1a1a1a;" x="200.303719" xlink:href="#m19d730d6fe" y="116.610054"/>
     <use style="fill:#4c72b0;stroke:#1a1a1a;" x="203.518516" xlink:href="#m19d730d6fe" y="104.0413"/>
     <use style="fill:#4c72b0;stroke:#1a1a1a;" x="223.82259" xlink:href="#m19d730d6fe" y="54.647989"/>
     <use style="fill:#4c72b0;stroke:#1a1a1a;" x="181.961731" xlink:href="#m19d730d6fe" y="138.687065"/>
     <use style="fill:#4c72b0;stroke:#1a1a1a;" x="177.271624" xlink:href="#m19d730d6fe" y="150.639954"/>
     <use style="fill:#4c72b0;stroke:#1a1a1a;" x="176.891626" xlink:href="#m19d730d6fe" y="149.194442"/>
     <use style="fill:#4c72b0;stroke:#1a1a1a;" x="201.250104" xlink:href="#m19d730d6fe" y="106.565684"/>
     <use style="fill:#4c72b0;stroke:#1a1a1a;" x="204.829225" xlink:href="#m19d730d6fe" y="108.741152"/>
     <use style="fill:#4c72b0;stroke:#1a1a1a;" x="201.25019" xlink:href="#m19d730d6fe" y="106.565684"/>
     <use style="fill:#4c72b0;stroke:#1a1a1a;" x="185.870144" xlink:href="#m19d730d6fe" y="132.818619"/>
     <use style="fill:#4c72b0;stroke:#1a1a1a;" x="210.073392" xlink:href="#m19d730d6fe" y="100.627455"/>
     <use style="fill:#4c72b0;stroke:#1a1a1a;" x="222.259564" xlink:href="#m19d730d6fe" y="54.495131"/>
     <use style="fill:#4c72b0;stroke:#1a1a1a;" x="185.869844" xlink:href="#m19d730d6fe" y="132.818619"/>
     <use style="fill:#4c72b0;stroke:#1a1a1a;" x="202.443021" xlink:href="#m19d730d6fe" y="102.01426"/>
     <use style="fill:#4c72b0;stroke:#1a1a1a;" x="166.528649" xlink:href="#m19d730d6fe" y="175.133905"/>
     <use style="fill:#4c72b0;stroke:#1a1a1a;" x="186.016555" xlink:href="#m19d730d6fe" y="135.214514"/>
     <use style="fill:#4c72b0;stroke:#1a1a1a;" x="185.796478" xlink:href="#m19d730d6fe" y="135.553461"/>
     <use style="fill:#4c72b0;stroke:#1a1a1a;" x="209.605543" xlink:href="#m19d730d6fe" y="94.828792"/>
     <use style="fill:#4c72b0;stroke:#1a1a1a;" x="199.999431" xlink:href="#m19d730d6fe" y="115.091436"/>
     <use style="fill:#4c72b0;stroke:#1a1a1a;" x="181.759005" xlink:href="#m19d730d6fe" y="138.687065"/>
     <use style="fill:#4c72b0;stroke:#1a1a1a;" x="214.967224" xlink:href="#m19d730d6fe" y="78.254695"/>
     <use style="fill:#4c72b0;stroke:#1a1a1a;" x="175.0986" xlink:href="#m19d730d6fe" y="143.193075"/>
     <use style="fill:#4c72b0;stroke:#1a1a1a;" x="208.966293" xlink:href="#m19d730d6fe" y="89.374615"/>
     <use style="fill:#4c72b0;stroke:#1a1a1a;" x="183.625526" xlink:href="#m19d730d6fe" y="138.019139"/>
     <use style="fill:#4c72b0;stroke:#1a1a1a;" x="199.603163" xlink:href="#m19d730d6fe" y="117.091892"/>
     <use style="fill:#4c72b0;stroke:#1a1a1a;" x="167.939012" xlink:href="#m19d730d6fe" y="168.97968"/>
     <use style="fill:#4c72b0;stroke:#1a1a1a;" x="200.733755" xlink:href="#m19d730d6fe" y="116.661007"/>
     <use style="fill:#4c72b0;stroke:#1a1a1a;" x="199.703313" xlink:href="#m19d730d6fe" y="115.091436"/>
     <use style="fill:#4c72b0;stroke:#1a1a1a;" x="185.385835" xlink:href="#m19d730d6fe" y="121.646639"/>
     <use style="fill:#4c72b0;stroke:#1a1a1a;" x="183.784595" xlink:href="#m19d730d6fe" y="136.667779"/>
     <use style="fill:#4c72b0;stroke:#1a1a1a;" x="215.208734" xlink:href="#m19d730d6fe" y="73.534905"/>
     <use style="fill:#4c72b0;stroke:#1a1a1a;" x="193.555264" xlink:href="#m19d730d6fe" y="124.336067"/>
     <use style="fill:#4c72b0;stroke:#1a1a1a;" x="186.616494" xlink:href="#m19d730d6fe" y="136.565873"/>
     <use style="fill:#4c72b0;stroke:#1a1a1a;" x="190.590581" xlink:href="#m19d730d6fe" y="121.339814"/>
     <use style="fill:#4c72b0;stroke:#1a1a1a;" x="182.951947" xlink:href="#m19d730d6fe" y="138.011385"/>
     <use style="fill:#4c72b0;stroke:#1a1a1a;" x="201.801797" xlink:href="#m19d730d6fe" y="109.215236"/>
     <use style="fill:#4c72b0;stroke:#1a1a1a;" x="182.659494" xlink:href="#m19d730d6fe" y="138.493223"/>
     <use style="fill:#4c72b0;stroke:#1a1a1a;" x="183.625127" xlink:href="#m19d730d6fe" y="138.019139"/>
     <use style="fill:#4c72b0;stroke:#1a1a1a;" x="182.408227" xlink:href="#m19d730d6fe" y="138.738018"/>
     <use style="fill:#4c72b0;stroke:#1a1a1a;" x="180.753408" xlink:href="#m19d730d6fe" y="143.040216"/>
     <use style="fill:#4c72b0;stroke:#1a1a1a;" x="204.240767" xlink:href="#m19d730d6fe" y="109.890916"/>
     <use style="fill:#4c72b0;stroke:#1a1a1a;" x="223.819292" xlink:href="#m19d730d6fe" y="54.647989"/>
     <use style="fill:#4c72b0;stroke:#1a1a1a;" x="188.998947" xlink:href="#m19d730d6fe" y="120.353986"/>
     <use style="fill:#4c72b0;stroke:#1a1a1a;" x="209.617303" xlink:href="#m19d730d6fe" y="93.375526"/>
     <use style="fill:#4c72b0;stroke:#1a1a1a;" x="175.098117" xlink:href="#m19d730d6fe" y="143.193075"/>
     <use style="fill:#4c72b0;stroke:#1a1a1a;" x="190.333424" xlink:href="#m19d730d6fe" y="126.406306"/>
     <use style="fill:#4c72b0;stroke:#1a1a1a;" x="186.388717" xlink:href="#m19d730d6fe" y="132.624776"/>
     <use style="fill:#4c72b0;stroke:#1a1a1a;" x="201.410341" xlink:href="#m19d730d6fe" y="116.17917"/>
     <use style="fill:#4c72b0;stroke:#1a1a1a;" x="182.236227" xlink:href="#m19d730d6fe" y="142.02005"/>
     <use style="fill:#4c72b0;stroke:#1a1a1a;" x="176.2562" xlink:href="#m19d730d6fe" y="143.193075"/>
     <use style="fill:#4c72b0;stroke:#1a1a1a;" x="200.318706" xlink:href="#m19d730d6fe" y="116.610054"/>
     <use style="fill:#4c72b0;stroke:#1a1a1a;" x="202.65762" xlink:href="#m19d730d6fe" y="111.680914"/>
     <use style="fill:#4c72b0;stroke:#1a1a1a;" x="175.097866" xlink:href="#m19d730d6fe" y="143.193075"/>
     <use style="fill:#4c72b0;stroke:#1a1a1a;" x="180.203663" xlink:href="#m19d730d6fe" y="140.062794"/>
     <use style="fill:#4c72b0;stroke:#1a1a1a;" x="182.073224" xlink:href="#m19d730d6fe" y="144.485728"/>
     <use style="fill:#4c72b0;stroke:#1a1a1a;" x="201.470718" xlink:href="#m19d730d6fe" y="110.566596"/>
     <use style="fill:#4c72b0;stroke:#1a1a1a;" x="168.164459" xlink:href="#m19d730d6fe" y="166.799781"/>
     <use style="fill:#4c72b0;stroke:#1a1a1a;" x="204.289099" xlink:href="#m19d730d6fe" y="104.194159"/>
     <use style="fill:#4c72b0;stroke:#1a1a1a;" x="185.585867" xlink:href="#m19d730d6fe" y="132.818619"/>
     <use style="fill:#4c72b0;stroke:#1a1a1a;" x="200.521018" xlink:href="#m19d730d6fe" y="116.661007"/>
     <use style="fill:#4c72b0;stroke:#1a1a1a;" x="197.291907" xlink:href="#m19d730d6fe" y="122.222628"/>
     <use style="fill:#4c72b0;stroke:#1a1a1a;" x="199.594292" xlink:href="#m19d730d6fe" y="117.142845"/>
     <use style="fill:#4c72b0;stroke:#1a1a1a;" x="199.59465" xlink:href="#m19d730d6fe" y="117.142845"/>
     <use style="fill:#4c72b0;stroke:#1a1a1a;" x="186.687744" xlink:href="#m19d730d6fe" y="132.869572"/>
     <use style="fill:#4c72b0;stroke:#1a1a1a;" x="189.027387" xlink:href="#m19d730d6fe" y="131.055205"/>
     <use style="fill:#4c72b0;stroke:#1a1a1a;" x="199.433393" xlink:href="#m19d730d6fe" y="106.463779"/>
     <use style="fill:#4c72b0;stroke:#1a1a1a;" x="176.895965" xlink:href="#m19d730d6fe" y="149.194442"/>
     <use style="fill:#4c72b0;stroke:#1a1a1a;" x="194.684738" xlink:href="#m19d730d6fe" y="122.478501"/>
     <use style="fill:#4c72b0;stroke:#1a1a1a;" x="175.799895" xlink:href="#m19d730d6fe" y="146.657873"/>
     <use style="fill:#4c72b0;stroke:#1a1a1a;" x="203.000957" xlink:href="#m19d730d6fe" y="96.594421"/>
     <use style="fill:#4c72b0;stroke:#1a1a1a;" x="185.980918" xlink:href="#m19d730d6fe" y="136.565873"/>
     <use style="fill:#4c72b0;stroke:#1a1a1a;" x="185.9806" xlink:href="#m19d730d6fe" y="136.565873"/>
     <use style="fill:#4c72b0;stroke:#1a1a1a;" x="195.850603" xlink:href="#m19d730d6fe" y="123.369069"/>
     <use style="fill:#4c72b0;stroke:#1a1a1a;" x="203.924536" xlink:href="#m19d730d6fe" y="96.012893"/>
     <use style="fill:#4c72b0;stroke:#1a1a1a;" x="185.485341" xlink:href="#m19d730d6fe" y="135.057224"/>
     <use style="fill:#4c72b0;stroke:#1a1a1a;" x="181.221431" xlink:href="#m19d730d6fe" y="125.587736"/>
     <use style="fill:#4c72b0;stroke:#1a1a1a;" x="158.286482" xlink:href="#m19d730d6fe" y="183.840207"/>
     <use style="fill:#4c72b0;stroke:#1a1a1a;" x="203.800304" xlink:href="#m19d730d6fe" y="109.704827"/>
     <use style="fill:#4c72b0;stroke:#1a1a1a;" x="182.58726" xlink:href="#m19d730d6fe" y="138.738018"/>
     <use style="fill:#4c72b0;stroke:#1a1a1a;" x="194.017562" xlink:href="#m19d730d6fe" y="124.949717"/>
     <use style="fill:#4c72b0;stroke:#1a1a1a;" x="202.98958" xlink:href="#m19d730d6fe" y="106.364088"/>
     <use style="fill:#4c72b0;stroke:#1a1a1a;" x="187.662118" xlink:href="#m19d730d6fe" y="130.76721"/>
     <use style="fill:#4c72b0;stroke:#1a1a1a;" x="197.207003" xlink:href="#m19d730d6fe" y="122.704466"/>
     <use style="fill:#4c72b0;stroke:#1a1a1a;" x="200.900909" xlink:href="#m19d730d6fe" y="110.566596"/>
     <use style="fill:#4c72b0;stroke:#1a1a1a;" x="195.767071" xlink:href="#m19d730d6fe" y="122.047616"/>
     <use style="fill:#4c72b0;stroke:#1a1a1a;" x="206.458676" xlink:href="#m19d730d6fe" y="102.748647"/>
     <use style="fill:#4c72b0;stroke:#1a1a1a;" x="203.92141" xlink:href="#m19d730d6fe" y="96.012893"/>
     <use style="fill:#4c72b0;stroke:#1a1a1a;" x="176.265282" xlink:href="#m19d730d6fe" y="146.60692"/>
     <use style="fill:#4c72b0;stroke:#1a1a1a;" x="204.289236" xlink:href="#m19d730d6fe" y="104.194159"/>
     <use style="fill:#4c72b0;stroke:#1a1a1a;" x="175.098173" xlink:href="#m19d730d6fe" y="143.193075"/>
     <use style="fill:#4c72b0;stroke:#1a1a1a;" x="181.219093" xlink:href="#m19d730d6fe" y="125.587736"/>
     <use style="fill:#4c72b0;stroke:#1a1a1a;" x="184.484739" xlink:href="#m19d730d6fe" y="136.667779"/>
     <use style="fill:#4c72b0;stroke:#1a1a1a;" x="194.444819" xlink:href="#m19d730d6fe" y="126.717561"/>
     <use style="fill:#4c72b0;stroke:#1a1a1a;" x="203.589599" xlink:href="#m19d730d6fe" y="109.704827"/>
     <use style="fill:#4c72b0;stroke:#1a1a1a;" x="211.021696" xlink:href="#m19d730d6fe" y="93.477432"/>
     <use style="fill:#4c72b0;stroke:#1a1a1a;" x="194.770503" xlink:href="#m19d730d6fe" y="126.20914"/>
     <use style="fill:#4c72b0;stroke:#1a1a1a;" x="174.602353" xlink:href="#m19d730d6fe" y="145.220115"/>
     <use style="fill:#4c72b0;stroke:#1a1a1a;" x="199.574066" xlink:href="#m19d730d6fe" y="114.364803"/>
     <use style="fill:#4c72b0;stroke:#1a1a1a;" x="203.028199" xlink:href="#m19d730d6fe" y="109.704827"/>
     <use style="fill:#4c72b0;stroke:#1a1a1a;" x="185.980603" xlink:href="#m19d730d6fe" y="136.565873"/>
     <use style="fill:#4c72b0;stroke:#1a1a1a;" x="208.966289" xlink:href="#m19d730d6fe" y="89.374615"/>
     <use style="fill:#4c72b0;stroke:#1a1a1a;" x="201.701044" xlink:href="#m19d730d6fe" y="105.214325"/>
     <use style="fill:#4c72b0;stroke:#1a1a1a;" x="191.095436" xlink:href="#m19d730d6fe" y="122.405394"/>
     <use style="fill:#4c72b0;stroke:#1a1a1a;" x="195.113982" xlink:href="#m19d730d6fe" y="123.18298"/>
     <use style="fill:#4c72b0;stroke:#1a1a1a;" x="193.316092" xlink:href="#m19d730d6fe" y="120.478045"/>
     <use style="fill:#4c72b0;stroke:#1a1a1a;" x="192.226354" xlink:href="#m19d730d6fe" y="122.324534"/>
     <use style="fill:#4c72b0;stroke:#1a1a1a;" x="188.971065" xlink:href="#m19d730d6fe" y="130.818163"/>
     <use style="fill:#4c72b0;stroke:#1a1a1a;" x="201.701137" xlink:href="#m19d730d6fe" y="105.214325"/>
     <use style="fill:#4c72b0;stroke:#1a1a1a;" x="186.36287" xlink:href="#m19d730d6fe" y="132.624776"/>
     <use style="fill:#4c72b0;stroke:#1a1a1a;" x="173.603866" xlink:href="#m19d730d6fe" y="153.858849"/>
     <use style="fill:#4c72b0;stroke:#1a1a1a;" x="170.984011" xlink:href="#m19d730d6fe" y="168.826821"/>
     <use style="fill:#4c72b0;stroke:#1a1a1a;" x="189.501535" xlink:href="#m19d730d6fe" y="130.310849"/>
     <use style="fill:#4c72b0;stroke:#1a1a1a;" x="205.018904" xlink:href="#m19d730d6fe" y="109.172037"/>
     <use style="fill:#4c72b0;stroke:#1a1a1a;" x="211.248266" xlink:href="#m19d730d6fe" y="94.828792"/>
     <use style="fill:#4c72b0;stroke:#1a1a1a;" x="179.683418" xlink:href="#m19d730d6fe" y="140.738474"/>
     <use style="fill:#4c72b0;stroke:#1a1a1a;" x="169.683186" xlink:href="#m19d730d6fe" y="166.799781"/>
     <use style="fill:#4c72b0;stroke:#1a1a1a;" x="199.733965" xlink:href="#m19d730d6fe" y="117.818524"/>
     <use style="fill:#4c72b0;stroke:#1a1a1a;" x="204.498685" xlink:href="#m19d730d6fe" y="102.748647"/>
     <use style="fill:#4c72b0;stroke:#1a1a1a;" x="195.928316" xlink:href="#m19d730d6fe" y="123.13535"/>
     <use style="fill:#4c72b0;stroke:#1a1a1a;" x="192.608446" xlink:href="#m19d730d6fe" y="125.544537"/>
     <use style="fill:#4c72b0;stroke:#1a1a1a;" x="195.113483" xlink:href="#m19d730d6fe" y="121.791744"/>
     <use style="fill:#4c72b0;stroke:#1a1a1a;" x="171.407136" xlink:href="#m19d730d6fe" y="151.374341"/>
     <use style="fill:#4c72b0;stroke:#1a1a1a;" x="179.930136" xlink:href="#m19d730d6fe" y="140.789427"/>
     <use style="fill:#4c72b0;stroke:#1a1a1a;" x="193.170664" xlink:href="#m19d730d6fe" y="125.062699"/>
     <use style="fill:#4c72b0;stroke:#1a1a1a;" x="173.642887" xlink:href="#m19d730d6fe" y="156.5084"/>
     <use style="fill:#4c72b0;stroke:#1a1a1a;" x="195.16351" xlink:href="#m19d730d6fe" y="123.834291"/>
     <use style="fill:#4c72b0;stroke:#1a1a1a;" x="192.364256" xlink:href="#m19d730d6fe" y="121.44172"/>
     <use style="fill:#4c72b0;stroke:#1a1a1a;" x="174.604054" xlink:href="#m19d730d6fe" y="145.220115"/>
     <use style="fill:#4c72b0;stroke:#1a1a1a;" x="191.30251" xlink:href="#m19d730d6fe" y="125.442631"/>
     <use style="fill:#4c72b0;stroke:#1a1a1a;" x="208.607798" xlink:href="#m19d730d6fe" y="90.725975"/>
     <use style="fill:#4c72b0;stroke:#1a1a1a;" x="175.098159" xlink:href="#m19d730d6fe" y="143.193075"/>
     <use style="fill:#4c72b0;stroke:#1a1a1a;" x="204.124184" xlink:href="#m19d730d6fe" y="102.167119"/>
     <use style="fill:#4c72b0;stroke:#1a1a1a;" x="203.805343" xlink:href="#m19d730d6fe" y="98.039933"/>
     <use style="fill:#4c72b0;stroke:#1a1a1a;" x="194.658669" xlink:href="#m19d730d6fe" y="121.689838"/>
     <use style="fill:#4c72b0;stroke:#1a1a1a;" x="201.040895" xlink:href="#m19d730d6fe" y="106.565684"/>
     <use style="fill:#4c72b0;stroke:#1a1a1a;" x="194.658678" xlink:href="#m19d730d6fe" y="121.689838"/>
     <use style="fill:#4c72b0;stroke:#1a1a1a;" x="174.102771" xlink:href="#m19d730d6fe" y="152.507489"/>
     <use style="fill:#4c72b0;stroke:#1a1a1a;" x="195.2265" xlink:href="#m19d730d6fe" y="124.099025"/>
     <use style="fill:#4c72b0;stroke:#1a1a1a;" x="177.362768" xlink:href="#m19d730d6fe" y="153.756943"/>
     <use style="fill:#4c72b0;stroke:#1a1a1a;" x="205.831346" xlink:href="#m19d730d6fe" y="96.012893"/>
     <use style="fill:#4c72b0;stroke:#1a1a1a;" x="189.451065" xlink:href="#m19d730d6fe" y="130.449308"/>
     <use style="fill:#4c72b0;stroke:#1a1a1a;" x="195.945184" xlink:href="#m19d730d6fe" y="122.653513"/>
     <use style="fill:#4c72b0;stroke:#1a1a1a;" x="216.773252" xlink:href="#m19d730d6fe" y="77.637722"/>
     <use style="fill:#4c72b0;stroke:#1a1a1a;" x="196.063438" xlink:href="#m19d730d6fe" y="123.13535"/>
     <use style="fill:#4c72b0;stroke:#1a1a1a;" x="209.617278" xlink:href="#m19d730d6fe" y="93.375526"/>
     <use style="fill:#4c72b0;stroke:#1a1a1a;" x="168.409867" xlink:href="#m19d730d6fe" y="174.981047"/>
     <use style="fill:#4c72b0;stroke:#1a1a1a;" x="181.617375" xlink:href="#m19d730d6fe" y="142.02005"/>
     <use style="fill:#4c72b0;stroke:#1a1a1a;" x="195.113459" xlink:href="#m19d730d6fe" y="121.791744"/>
     <use style="fill:#4c72b0;stroke:#1a1a1a;" x="199.703299" xlink:href="#m19d730d6fe" y="115.091436"/>
     <use style="fill:#4c72b0;stroke:#1a1a1a;" x="179.344293" xlink:href="#m19d730d6fe" y="142.121956"/>
     <use style="fill:#4c72b0;stroke:#1a1a1a;" x="181.759002" xlink:href="#m19d730d6fe" y="138.687065"/>
     <use style="fill:#4c72b0;stroke:#1a1a1a;" x="182.64424" xlink:href="#m19d730d6fe" y="138.011385"/>
     <use style="fill:#4c72b0;stroke:#1a1a1a;" x="194.161153" xlink:href="#m19d730d6fe" y="124.580862"/>
     <use style="fill:#4c72b0;stroke:#1a1a1a;" x="189.70212" xlink:href="#m19d730d6fe" y="130.142483"/>
     <use style="fill:#4c72b0;stroke:#1a1a1a;" x="216.969188" xlink:href="#m19d730d6fe" y="80.434594"/>
     <use style="fill:#4c72b0;stroke:#1a1a1a;" x="171.778991" xlink:href="#m19d730d6fe" y="160.318792"/>
     <use style="fill:#4c72b0;stroke:#1a1a1a;" x="170.114721" xlink:href="#m19d730d6fe" y="168.245293"/>
     <use style="fill:#4c72b0;stroke:#1a1a1a;" x="176.890868" xlink:href="#m19d730d6fe" y="149.194442"/>
     <use style="fill:#4c72b0;stroke:#1a1a1a;" x="176.939789" xlink:href="#m19d730d6fe" y="144.638587"/>
     <use style="fill:#4c72b0;stroke:#1a1a1a;" x="173.60382" xlink:href="#m19d730d6fe" y="153.858849"/>
     <use style="fill:#4c72b0;stroke:#1a1a1a;" x="184.006569" xlink:href="#m19d730d6fe" y="137.631454"/>
     <use style="fill:#4c72b0;stroke:#1a1a1a;" x="186.342838" xlink:href="#m19d730d6fe" y="132.142939"/>
     <use style="fill:#4c72b0;stroke:#1a1a1a;" x="195.198639" xlink:href="#m19d730d6fe" y="121.791744"/>
     <use style="fill:#4c72b0;stroke:#1a1a1a;" x="199.503215" xlink:href="#m19d730d6fe" y="116.416212"/>
     <use style="fill:#4c72b0;stroke:#1a1a1a;" x="168.410991" xlink:href="#m19d730d6fe" y="174.981047"/>
     <use style="fill:#4c72b0;stroke:#1a1a1a;" x="188.855485" xlink:href="#m19d730d6fe" y="130.09153"/>
     <use style="fill:#4c72b0;stroke:#1a1a1a;" x="203.067227" xlink:href="#m19d730d6fe" y="102.01426"/>
     <use style="fill:#4c72b0;stroke:#1a1a1a;" x="176.264906" xlink:href="#m19d730d6fe" y="146.60692"/>
     <use style="fill:#4c72b0;stroke:#1a1a1a;" x="191.095437" xlink:href="#m19d730d6fe" y="122.405394"/>
     <use style="fill:#4c72b0;stroke:#1a1a1a;" x="203.48108" xlink:href="#m19d730d6fe" y="106.457133"/>
     <use style="fill:#4c72b0;stroke:#1a1a1a;" x="205.244232" xlink:href="#m19d730d6fe" y="108.54731"/>
     <use style="fill:#4c72b0;stroke:#1a1a1a;" x="209.605443" xlink:href="#m19d730d6fe" y="94.828792"/>
     <use style="fill:#4c72b0;stroke:#1a1a1a;" x="181.939416" xlink:href="#m19d730d6fe" y="144.11355"/>
     <use style="fill:#4c72b0;stroke:#1a1a1a;" x="188.969109" xlink:href="#m19d730d6fe" y="130.818163"/>
     <use style="fill:#4c72b0;stroke:#1a1a1a;" x="202.435667" xlink:href="#m19d730d6fe" y="110.668502"/>
     <use style="fill:#4c72b0;stroke:#1a1a1a;" x="180.533694" xlink:href="#m19d730d6fe" y="127.614776"/>
     <use style="fill:#4c72b0;stroke:#1a1a1a;" x="183.784596" xlink:href="#m19d730d6fe" y="136.667779"/>
     <use style="fill:#4c72b0;stroke:#1a1a1a;" x="192.280723" xlink:href="#m19d730d6fe" y="125.666381"/>
     <use style="fill:#4c72b0;stroke:#1a1a1a;" x="186.362579" xlink:href="#m19d730d6fe" y="132.624776"/>
     <use style="fill:#4c72b0;stroke:#1a1a1a;" x="209.617247" xlink:href="#m19d730d6fe" y="93.375526"/>
     <use style="fill:#4c72b0;stroke:#1a1a1a;" x="202.142472" xlink:href="#m19d730d6fe" y="105.60201"/>
     <use style="fill:#4c72b0;stroke:#1a1a1a;" x="204.217344" xlink:href="#m19d730d6fe" y="102.595788"/>
     <use style="fill:#4c72b0;stroke:#1a1a1a;" x="174.260236" xlink:href="#m19d730d6fe" y="157.85976"/>
     <use style="fill:#4c72b0;stroke:#1a1a1a;" x="164.180335" xlink:href="#m19d730d6fe" y="192.586386"/>
     <use style="fill:#4c72b0;stroke:#1a1a1a;" x="191.844423" xlink:href="#m19d730d6fe" y="121.054034"/>
     <use style="fill:#4c72b0;stroke:#1a1a1a;" x="194.921022" xlink:href="#m19d730d6fe" y="124.650645"/>
     <use style="fill:#4c72b0;stroke:#1a1a1a;" x="194.068921" xlink:href="#m19d730d6fe" y="124.580862"/>
     <use style="fill:#4c72b0;stroke:#1a1a1a;" x="199.703299" xlink:href="#m19d730d6fe" y="115.091436"/>
     <use style="fill:#4c72b0;stroke:#1a1a1a;" x="188.667082" xlink:href="#m19d730d6fe" y="120.353986"/>
     <use style="fill:#4c72b0;stroke:#1a1a1a;" x="199.968929" xlink:href="#m19d730d6fe" y="117.649051"/>
     <use style="fill:#4c72b0;stroke:#1a1a1a;" x="203.001476" xlink:href="#m19d730d6fe" y="96.594421"/>
     <use style="fill:#4c72b0;stroke:#1a1a1a;" x="208.966409" xlink:href="#m19d730d6fe" y="89.374615"/>
     <use style="fill:#4c72b0;stroke:#1a1a1a;" x="183.784232" xlink:href="#m19d730d6fe" y="136.667779"/>
     <use style="fill:#4c72b0;stroke:#1a1a1a;" x="180.203477" xlink:href="#m19d730d6fe" y="140.062794"/>
     <use style="fill:#4c72b0;stroke:#1a1a1a;" x="190.031732" xlink:href="#m19d730d6fe" y="118.908474"/>
     <use style="fill:#4c72b0;stroke:#1a1a1a;" x="195.078563" xlink:href="#m19d730d6fe" y="124.099025"/>
     <use style="fill:#4c72b0;stroke:#1a1a1a;" x="204.515938" xlink:href="#m19d730d6fe" y="109.952946"/>
     <use style="fill:#4c72b0;stroke:#1a1a1a;" x="177.608451" xlink:href="#m19d730d6fe" y="151.221482"/>
     <use style="fill:#4c72b0;stroke:#1a1a1a;" x="181.339274" xlink:href="#m19d730d6fe" y="140.668691"/>
     <use style="fill:#4c72b0;stroke:#1a1a1a;" x="181.81838" xlink:href="#m19d730d6fe" y="140.668691"/>
     <use style="fill:#4c72b0;stroke:#1a1a1a;" x="201.657856" xlink:href="#m19d730d6fe" y="105.214325"/>
     <use style="fill:#4c72b0;stroke:#1a1a1a;" x="181.335878" xlink:href="#m19d730d6fe" y="145.067256"/>
     <use style="fill:#4c72b0;stroke:#1a1a1a;" x="186.341272" xlink:href="#m19d730d6fe" y="132.142939"/>
     <use style="fill:#4c72b0;stroke:#1a1a1a;" x="199.79413" xlink:href="#m19d730d6fe" y="114.415756"/>
    </g>
   </g>
   <g id="line2d_1">
    <path clip-path="url(#pf77b5c6053)" d="M 107.087978 212.230949 
L 118.164698 201.154229 
L 129.241418 190.077508 
L 140.318138 179.000788 
L 151.394858 167.924068 
L 162.471578 156.847348 
L 173.548298 145.770628 
L 184.625019 134.693908 
L 195.701739 123.617188 
L 206.778459 112.540467 
L 217.855179 101.463747 
L 228.931899 90.387027 
L 240.008619 79.310307 
L 251.08534 68.233587 
L 262.16206 57.156867 
L 273.23878 46.080146 
" style="fill:none;stroke:#1a1a1a;stroke-linecap:round;stroke-width:1.5;"/>
   </g>
   <g id="patch_3">
    <path d="M 107.087978 212.230949 
L 107.087978 35.003426 
" style="fill:none;stroke:#262626;stroke-linecap:square;stroke-linejoin:miter;stroke-width:1.25;"/>
   </g>
   <g id="patch_4">
    <path d="M 107.087978 212.230949 
L 284.3155 212.230949 
" style="fill:none;stroke:#262626;stroke-linecap:square;stroke-linejoin:miter;stroke-width:1.25;"/>
   </g>
   <g id="text_9">
    <!-- OHx.svg -->
    <defs>
     <path d="M 4.828125 34.859375 
Q 4.828125 52.6875 14.390625 62.765625 
Q 23.96875 72.859375 39.109375 72.859375 
Q 49.03125 72.859375 56.984375 68.109375 
Q 64.9375 63.375 69.109375 54.90625 
Q 73.296875 46.4375 73.296875 35.6875 
Q 73.296875 24.8125 68.890625 16.21875 
Q 64.5 7.625 56.4375 3.203125 
Q 48.390625 -1.21875 39.0625 -1.21875 
Q 28.953125 -1.21875 20.984375 3.65625 
Q 13.03125 8.546875 8.921875 16.984375 
Q 4.828125 25.4375 4.828125 34.859375 
z
M 14.59375 34.71875 
Q 14.59375 21.78125 21.546875 14.328125 
Q 28.515625 6.890625 39.015625 6.890625 
Q 49.703125 6.890625 56.609375 14.40625 
Q 63.53125 21.921875 63.53125 35.75 
Q 63.53125 44.484375 60.578125 51 
Q 57.625 57.515625 51.921875 61.109375 
Q 46.234375 64.703125 39.15625 64.703125 
Q 29.109375 64.703125 21.84375 57.78125 
Q 14.59375 50.875 14.59375 34.71875 
z
" id="ArialMT-79"/>
     <path d="M 8.015625 0 
L 8.015625 71.578125 
L 17.484375 71.578125 
L 17.484375 42.1875 
L 54.6875 42.1875 
L 54.6875 71.578125 
L 64.15625 71.578125 
L 64.15625 0 
L 54.6875 0 
L 54.6875 33.734375 
L 17.484375 33.734375 
L 17.484375 0 
z
" id="ArialMT-72"/>
     <path d="M 0.734375 0 
L 19.671875 26.953125 
L 2.15625 51.859375 
L 13.140625 51.859375 
L 21.09375 39.703125 
Q 23.34375 36.234375 24.703125 33.890625 
Q 26.859375 37.109375 28.65625 39.59375 
L 37.40625 51.859375 
L 47.90625 51.859375 
L 29.984375 27.4375 
L 49.265625 0 
L 38.484375 0 
L 27.828125 16.109375 
L 25 20.453125 
L 11.375 0 
z
" id="ArialMT-120"/>
     <path d="M 9.078125 0 
L 9.078125 10.015625 
L 19.09375 10.015625 
L 19.09375 0 
z
" id="ArialMT-46"/>
     <path d="M 3.078125 15.484375 
L 11.765625 16.84375 
Q 12.5 11.625 15.84375 8.84375 
Q 19.1875 6.0625 25.203125 6.0625 
Q 31.25 6.0625 34.171875 8.515625 
Q 37.109375 10.984375 37.109375 14.3125 
Q 37.109375 17.28125 34.515625 19 
Q 32.71875 20.171875 25.53125 21.96875 
Q 15.875 24.421875 12.140625 26.203125 
Q 8.40625 27.984375 6.46875 31.125 
Q 4.546875 34.28125 4.546875 38.09375 
Q 4.546875 41.546875 6.125 44.5 
Q 7.71875 47.46875 10.453125 49.421875 
Q 12.5 50.921875 16.03125 51.96875 
Q 19.578125 53.03125 23.640625 53.03125 
Q 29.734375 53.03125 34.34375 51.265625 
Q 38.96875 49.515625 41.15625 46.5 
Q 43.359375 43.5 44.1875 38.484375 
L 35.59375 37.3125 
Q 35.015625 41.3125 32.203125 43.546875 
Q 29.390625 45.796875 24.265625 45.796875 
Q 18.21875 45.796875 15.625 43.796875 
Q 13.03125 41.796875 13.03125 39.109375 
Q 13.03125 37.40625 14.109375 36.03125 
Q 15.1875 34.625 17.484375 33.6875 
Q 18.796875 33.203125 25.25 31.453125 
Q 34.578125 28.953125 38.25 27.359375 
Q 41.9375 25.78125 44.03125 22.75 
Q 46.140625 19.734375 46.140625 15.234375 
Q 46.140625 10.84375 43.578125 6.953125 
Q 41.015625 3.078125 36.171875 0.953125 
Q 31.34375 -1.171875 25.25 -1.171875 
Q 15.140625 -1.171875 9.84375 3.03125 
Q 4.546875 7.234375 3.078125 15.484375 
z
" id="ArialMT-115"/>
     <path d="M 21 0 
L 1.265625 51.859375 
L 10.546875 51.859375 
L 21.6875 20.796875 
Q 23.484375 15.765625 25 10.359375 
Q 26.171875 14.453125 28.265625 20.21875 
L 39.796875 51.859375 
L 48.828125 51.859375 
L 29.203125 0 
z
" id="ArialMT-118"/>
     <path d="M 4.984375 -4.296875 
L 13.53125 -5.5625 
Q 14.0625 -9.515625 16.5 -11.328125 
Q 19.78125 -13.765625 25.4375 -13.765625 
Q 31.546875 -13.765625 34.859375 -11.328125 
Q 38.1875 -8.890625 39.359375 -4.5 
Q 40.046875 -1.8125 39.984375 6.78125 
Q 34.234375 0 25.640625 0 
Q 14.9375 0 9.078125 7.71875 
Q 3.21875 15.4375 3.21875 26.21875 
Q 3.21875 33.640625 5.90625 39.90625 
Q 8.59375 46.1875 13.6875 49.609375 
Q 18.796875 53.03125 25.6875 53.03125 
Q 34.859375 53.03125 40.828125 45.609375 
L 40.828125 51.859375 
L 48.921875 51.859375 
L 48.921875 7.03125 
Q 48.921875 -5.078125 46.453125 -10.125 
Q 44 -15.1875 38.640625 -18.109375 
Q 33.296875 -21.046875 25.484375 -21.046875 
Q 16.21875 -21.046875 10.5 -16.875 
Q 4.78125 -12.703125 4.984375 -4.296875 
z
M 12.25 26.859375 
Q 12.25 16.65625 16.296875 11.96875 
Q 20.359375 7.28125 26.46875 7.28125 
Q 32.515625 7.28125 36.609375 11.9375 
Q 40.71875 16.609375 40.71875 26.5625 
Q 40.71875 36.078125 36.5 40.90625 
Q 32.28125 45.75 26.3125 45.75 
Q 20.453125 45.75 16.34375 40.984375 
Q 12.25 36.234375 12.25 26.859375 
z
" id="ArialMT-103"/>
    </defs>
    <g style="fill:#262626;" transform="translate(161.196583 29.003426)scale(0.18 -0.18)">
     <use xlink:href="#ArialMT-79"/>
     <use x="77.783203" xlink:href="#ArialMT-72"/>
     <use x="150" xlink:href="#ArialMT-120"/>
     <use x="200" xlink:href="#ArialMT-46"/>
     <use x="227.783203" xlink:href="#ArialMT-115"/>
     <use x="277.783203" xlink:href="#ArialMT-118"/>
     <use x="327.783203" xlink:href="#ArialMT-103"/>
    </g>
   </g>
  </g>
  <g id="legend_1">
   <g id="text_10">
    <!-- ads_trans -->
    <defs>
     <path d="M 6.5 0 
L 6.5 51.859375 
L 14.40625 51.859375 
L 14.40625 44 
Q 17.4375 49.515625 20 51.265625 
Q 22.5625 53.03125 25.640625 53.03125 
Q 30.078125 53.03125 34.671875 50.203125 
L 31.640625 42.046875 
Q 28.421875 43.953125 25.203125 43.953125 
Q 22.3125 43.953125 20.015625 42.21875 
Q 17.71875 40.484375 16.75 37.40625 
Q 15.28125 32.71875 15.28125 27.15625 
L 15.28125 0 
z
" id="ArialMT-114"/>
     <path d="M 6.59375 0 
L 6.59375 51.859375 
L 14.5 51.859375 
L 14.5 44.484375 
Q 20.21875 53.03125 31 53.03125 
Q 35.6875 53.03125 39.625 51.34375 
Q 43.5625 49.65625 45.515625 46.921875 
Q 47.46875 44.1875 48.25 40.4375 
Q 48.734375 37.984375 48.734375 31.890625 
L 48.734375 0 
L 39.9375 0 
L 39.9375 31.546875 
Q 39.9375 36.921875 38.90625 39.578125 
Q 37.890625 42.234375 35.28125 43.8125 
Q 32.671875 45.40625 29.15625 45.40625 
Q 23.53125 45.40625 19.453125 41.84375 
Q 15.375 38.28125 15.375 28.328125 
L 15.375 0 
z
" id="ArialMT-110"/>
    </defs>
    <g style="fill:#262626;" transform="translate(286.413875 136.285406)scale(0.153 -0.153)">
     <use xlink:href="#ArialMT-97"/>
     <use x="55.615234" xlink:href="#ArialMT-100"/>
     <use x="111.230469" xlink:href="#ArialMT-115"/>
     <use x="161.230469" xlink:href="#ArialMT-95"/>
     <use x="216.845703" xlink:href="#ArialMT-116"/>
     <use x="244.628906" xlink:href="#ArialMT-114"/>
     <use x="277.929688" xlink:href="#ArialMT-97"/>
     <use x="333.544922" xlink:href="#ArialMT-110"/>
     <use x="389.160156" xlink:href="#ArialMT-115"/>
    </g>
   </g>
   <g id="PathCollection_2">
    <g>
     <use style="fill:#4c72b0;stroke:#1a1a1a;" x="306.989984" xlink:href="#m19d730d6fe" y="155.055422"/>
    </g>
   </g>
   <g id="text_11">
    <!-- O -->
    <g style="fill:#262626;" transform="translate(336.689984 159.386672)scale(0.165 -0.165)">
     <use xlink:href="#ArialMT-79"/>
    </g>
   </g>
  </g>
 </g>
 <defs>
  <clipPath id="pf77b5c6053">
   <rect height="177.227522" width="177.227522" x="107.087978" y="35.003426"/>
  </clipPath>
 </defs>
</svg>
