<?xml version="1.0" encoding="utf-8" standalone="no"?>
<!DOCTYPE svg PUBLIC "-//W3C//DTD SVG 1.1//EN"
  "http://www.w3.org/Graphics/SVG/1.1/DTD/svg11.dtd">
<!-- Created with matplotlib (https://matplotlib.org/) -->
<svg height="288pt" version="1.1" viewBox="0 0 368.45 288" width="368.45pt" xmlns="http://www.w3.org/2000/svg" xmlns:xlink="http://www.w3.org/1999/xlink">
 <defs>
  <style type="text/css">
*{stroke-linecap:butt;stroke-linejoin:round;}
  </style>
 </defs>
 <g id="figure_1">
  <g id="patch_1">
   <path d="M 0 288 
L 368.45 288 
L 368.45 0 
L 0 0 
z
" style="fill:#ffffff;"/>
  </g>
  <g id="axes_1">
   <g id="patch_2">
    <path d="M 89.656966 220.946454 
L 284.3155 220.946454 
L 284.3155 26.287921 
L 89.656966 26.287921 
z
" style="fill:#ffffff;"/>
   </g>
   <g id="matplotlib.axis_1">
    <g id="xtick_1">
     <g id="text_1">
      <!-- −5 -->
      <defs>
       <path d="M 52.828125 31.203125 
L 5.5625 31.203125 
L 5.5625 39.40625 
L 52.828125 39.40625 
z
" id="ArialMT-8722"/>
       <path d="M 4.15625 18.75 
L 13.375 19.53125 
Q 14.40625 12.796875 18.140625 9.390625 
Q 21.875 6 27.15625 6 
Q 33.5 6 37.890625 10.78125 
Q 42.28125 15.578125 42.28125 23.484375 
Q 42.28125 31 38.0625 35.34375 
Q 33.84375 39.703125 27 39.703125 
Q 22.75 39.703125 19.328125 37.765625 
Q 15.921875 35.84375 13.96875 32.765625 
L 5.71875 33.84375 
L 12.640625 70.609375 
L 48.25 70.609375 
L 48.25 62.203125 
L 19.671875 62.203125 
L 15.828125 42.96875 
Q 22.265625 47.46875 29.34375 47.46875 
Q 38.71875 47.46875 45.15625 40.96875 
Q 51.609375 34.46875 51.609375 24.265625 
Q 51.609375 14.546875 45.953125 7.46875 
Q 39.0625 -1.21875 27.15625 -1.21875 
Q 17.390625 -1.21875 11.203125 4.25 
Q 5.03125 9.71875 4.15625 18.75 
z
" id="ArialMT-53"/>
      </defs>
      <g style="fill:#262626;" transform="translate(116.749152 242.256845)scale(0.165 -0.165)">
       <use xlink:href="#ArialMT-8722"/>
       <use x="58.398438" xlink:href="#ArialMT-53"/>
      </g>
     </g>
    </g>
    <g id="xtick_2">
     <g id="text_2">
      <!-- 0 -->
      <defs>
       <path d="M 4.15625 35.296875 
Q 4.15625 48 6.765625 55.734375 
Q 9.375 63.484375 14.515625 67.671875 
Q 19.671875 71.875 27.484375 71.875 
Q 33.25 71.875 37.59375 69.546875 
Q 41.9375 67.234375 44.765625 62.859375 
Q 47.609375 58.5 49.21875 52.21875 
Q 50.828125 45.953125 50.828125 35.296875 
Q 50.828125 22.703125 48.234375 14.96875 
Q 45.65625 7.234375 40.5 3 
Q 35.359375 -1.21875 27.484375 -1.21875 
Q 17.140625 -1.21875 11.234375 6.203125 
Q 4.15625 15.140625 4.15625 35.296875 
z
M 13.1875 35.296875 
Q 13.1875 17.671875 17.3125 11.828125 
Q 21.4375 6 27.484375 6 
Q 33.546875 6 37.671875 11.859375 
Q 41.796875 17.71875 41.796875 35.296875 
Q 41.796875 52.984375 37.671875 58.78125 
Q 33.546875 64.59375 27.390625 64.59375 
Q 21.34375 64.59375 17.71875 59.46875 
Q 13.1875 52.9375 13.1875 35.296875 
z
" id="ArialMT-48"/>
      </defs>
      <g style="fill:#262626;" transform="translate(182.39846 242.256845)scale(0.165 -0.165)">
       <use xlink:href="#ArialMT-48"/>
      </g>
     </g>
    </g>
    <g id="xtick_3">
     <g id="text_3">
      <!-- 5 -->
      <g style="fill:#262626;" transform="translate(243.229251 242.256845)scale(0.165 -0.165)">
       <use xlink:href="#ArialMT-53"/>
      </g>
     </g>
    </g>
    <g id="text_4">
     <!-- delBE_dft -->
     <defs>
      <path d="M 40.234375 0 
L 40.234375 6.546875 
Q 35.296875 -1.171875 25.734375 -1.171875 
Q 19.53125 -1.171875 14.328125 2.25 
Q 9.125 5.671875 6.265625 11.796875 
Q 3.421875 17.921875 3.421875 25.875 
Q 3.421875 33.640625 6 39.96875 
Q 8.59375 46.296875 13.765625 49.65625 
Q 18.953125 53.03125 25.34375 53.03125 
Q 30.03125 53.03125 33.6875 51.046875 
Q 37.359375 49.078125 39.65625 45.90625 
L 39.65625 71.578125 
L 48.390625 71.578125 
L 48.390625 0 
z
M 12.453125 25.875 
Q 12.453125 15.921875 16.640625 10.984375 
Q 20.84375 6.0625 26.5625 6.0625 
Q 32.328125 6.0625 36.34375 10.765625 
Q 40.375 15.484375 40.375 25.140625 
Q 40.375 35.796875 36.265625 40.765625 
Q 32.171875 45.75 26.171875 45.75 
Q 20.3125 45.75 16.375 40.96875 
Q 12.453125 36.1875 12.453125 25.875 
z
" id="ArialMT-100"/>
      <path d="M 42.09375 16.703125 
L 51.171875 15.578125 
Q 49.03125 7.625 43.21875 3.21875 
Q 37.40625 -1.171875 28.375 -1.171875 
Q 17 -1.171875 10.328125 5.828125 
Q 3.65625 12.84375 3.65625 25.484375 
Q 3.65625 38.578125 10.390625 45.796875 
Q 17.140625 53.03125 27.875 53.03125 
Q 38.28125 53.03125 44.875 45.953125 
Q 51.46875 38.875 51.46875 26.03125 
Q 51.46875 25.25 51.421875 23.6875 
L 12.75 23.6875 
Q 13.234375 15.140625 17.578125 10.59375 
Q 21.921875 6.0625 28.421875 6.0625 
Q 33.25 6.0625 36.671875 8.59375 
Q 40.09375 11.140625 42.09375 16.703125 
z
M 13.234375 30.90625 
L 42.1875 30.90625 
Q 41.609375 37.453125 38.875 40.71875 
Q 34.671875 45.796875 27.984375 45.796875 
Q 21.921875 45.796875 17.796875 41.75 
Q 13.671875 37.703125 13.234375 30.90625 
z
" id="ArialMT-101"/>
      <path d="M 6.390625 0 
L 6.390625 71.578125 
L 15.1875 71.578125 
L 15.1875 0 
z
" id="ArialMT-108"/>
      <path d="M 7.328125 0 
L 7.328125 71.578125 
L 34.1875 71.578125 
Q 42.390625 71.578125 47.34375 69.40625 
Q 52.296875 67.234375 55.09375 62.71875 
Q 57.90625 58.203125 57.90625 53.265625 
Q 57.90625 48.6875 55.421875 44.625 
Q 52.9375 40.578125 47.90625 38.09375 
Q 54.390625 36.1875 57.875 31.59375 
Q 61.375 27 61.375 20.75 
Q 61.375 15.71875 59.25 11.390625 
Q 57.125 7.078125 54 4.734375 
Q 50.875 2.390625 46.15625 1.1875 
Q 41.453125 0 34.625 0 
z
M 16.796875 41.5 
L 32.28125 41.5 
Q 38.578125 41.5 41.3125 42.328125 
Q 44.921875 43.40625 46.75 45.890625 
Q 48.578125 48.390625 48.578125 52.15625 
Q 48.578125 55.71875 46.875 58.421875 
Q 45.171875 61.140625 41.984375 62.140625 
Q 38.8125 63.140625 31.109375 63.140625 
L 16.796875 63.140625 
z
M 16.796875 8.453125 
L 34.625 8.453125 
Q 39.203125 8.453125 41.0625 8.796875 
Q 44.34375 9.375 46.53125 10.734375 
Q 48.734375 12.109375 50.140625 14.71875 
Q 51.5625 17.328125 51.5625 20.75 
Q 51.5625 24.75 49.515625 27.703125 
Q 47.46875 30.671875 43.828125 31.859375 
Q 40.1875 33.0625 33.34375 33.0625 
L 16.796875 33.0625 
z
" id="ArialMT-66"/>
      <path d="M 7.90625 0 
L 7.90625 71.578125 
L 59.671875 71.578125 
L 59.671875 63.140625 
L 17.390625 63.140625 
L 17.390625 41.21875 
L 56.984375 41.21875 
L 56.984375 32.8125 
L 17.390625 32.8125 
L 17.390625 8.453125 
L 61.328125 8.453125 
L 61.328125 0 
z
" id="ArialMT-69"/>
      <path d="M -1.515625 -19.875 
L -1.515625 -13.53125 
L 56.734375 -13.53125 
L 56.734375 -19.875 
z
" id="ArialMT-95"/>
      <path d="M 8.6875 0 
L 8.6875 45.015625 
L 0.921875 45.015625 
L 0.921875 51.859375 
L 8.6875 51.859375 
L 8.6875 57.375 
Q 8.6875 62.59375 9.625 65.140625 
Q 10.890625 68.5625 14.078125 70.671875 
Q 17.28125 72.796875 23.046875 72.796875 
Q 26.765625 72.796875 31.25 71.921875 
L 29.9375 64.265625 
Q 27.203125 64.75 24.75 64.75 
Q 20.75 64.75 19.09375 63.03125 
Q 17.4375 61.328125 17.4375 56.640625 
L 17.4375 51.859375 
L 27.546875 51.859375 
L 27.546875 45.015625 
L 17.4375 45.015625 
L 17.4375 0 
z
" id="ArialMT-102"/>
      <path d="M 25.78125 7.859375 
L 27.046875 0.09375 
Q 23.34375 -0.6875 20.40625 -0.6875 
Q 15.625 -0.6875 12.984375 0.828125 
Q 10.359375 2.34375 9.28125 4.8125 
Q 8.203125 7.28125 8.203125 15.1875 
L 8.203125 45.015625 
L 1.765625 45.015625 
L 1.765625 51.859375 
L 8.203125 51.859375 
L 8.203125 64.703125 
L 16.9375 69.96875 
L 16.9375 51.859375 
L 25.78125 51.859375 
L 25.78125 45.015625 
L 16.9375 45.015625 
L 16.9375 14.703125 
Q 16.9375 10.9375 17.40625 9.859375 
Q 17.875 8.796875 18.921875 8.15625 
Q 19.96875 7.515625 21.921875 7.515625 
Q 23.390625 7.515625 25.78125 7.859375 
z
" id="ArialMT-116"/>
     </defs>
     <g style="fill:#262626;" transform="translate(147.959983 262.639657)scale(0.18 -0.18)">
      <use xlink:href="#ArialMT-100"/>
      <use x="55.615234" xlink:href="#ArialMT-101"/>
      <use x="111.230469" xlink:href="#ArialMT-108"/>
      <use x="133.447266" xlink:href="#ArialMT-66"/>
      <use x="200.146484" xlink:href="#ArialMT-69"/>
      <use x="266.845703" xlink:href="#ArialMT-95"/>
      <use x="322.460938" xlink:href="#ArialMT-100"/>
      <use x="378.076172" xlink:href="#ArialMT-102"/>
      <use x="405.859375" xlink:href="#ArialMT-116"/>
     </g>
    </g>
   </g>
   <g id="matplotlib.axis_2">
    <g id="ytick_1">
     <g id="text_5">
      <!-- −5 -->
      <g style="fill:#262626;" transform="translate(61.344388 190.353175)scale(0.165 -0.165)">
       <use xlink:href="#ArialMT-8722"/>
       <use x="58.398438" xlink:href="#ArialMT-53"/>
      </g>
     </g>
    </g>
    <g id="ytick_2">
     <g id="text_6">
      <!-- 0 -->
      <g style="fill:#262626;" transform="translate(70.981419 129.522383)scale(0.165 -0.165)">
       <use xlink:href="#ArialMT-48"/>
      </g>
     </g>
    </g>
    <g id="ytick_3">
     <g id="text_7">
      <!-- 5 -->
      <g style="fill:#262626;" transform="translate(70.981419 68.691591)scale(0.165 -0.165)">
       <use xlink:href="#ArialMT-53"/>
      </g>
     </g>
    </g>
    <g id="text_8">
     <!-- delBE_alc_ml -->
     <defs>
      <path d="M 40.4375 6.390625 
Q 35.546875 2.25 31.03125 0.53125 
Q 26.515625 -1.171875 21.34375 -1.171875 
Q 12.796875 -1.171875 8.203125 3 
Q 3.609375 7.171875 3.609375 13.671875 
Q 3.609375 17.484375 5.34375 20.625 
Q 7.078125 23.78125 9.890625 25.6875 
Q 12.703125 27.59375 16.21875 28.5625 
Q 18.796875 29.25 24.03125 29.890625 
Q 34.671875 31.15625 39.703125 32.90625 
Q 39.75 34.71875 39.75 35.203125 
Q 39.75 40.578125 37.25 42.78125 
Q 33.890625 45.75 27.25 45.75 
Q 21.046875 45.75 18.09375 43.578125 
Q 15.140625 41.40625 13.71875 35.890625 
L 5.125 37.0625 
Q 6.296875 42.578125 8.984375 45.96875 
Q 11.671875 49.359375 16.75 51.1875 
Q 21.828125 53.03125 28.515625 53.03125 
Q 35.15625 53.03125 39.296875 51.46875 
Q 43.453125 49.90625 45.40625 47.53125 
Q 47.359375 45.171875 48.140625 41.546875 
Q 48.578125 39.3125 48.578125 33.453125 
L 48.578125 21.734375 
Q 48.578125 9.46875 49.140625 6.21875 
Q 49.703125 2.984375 51.375 0 
L 42.1875 0 
Q 40.828125 2.734375 40.4375 6.390625 
z
M 39.703125 26.03125 
Q 34.90625 24.078125 25.34375 22.703125 
Q 19.921875 21.921875 17.671875 20.9375 
Q 15.4375 19.96875 14.203125 18.09375 
Q 12.984375 16.21875 12.984375 13.921875 
Q 12.984375 10.40625 15.640625 8.0625 
Q 18.3125 5.71875 23.4375 5.71875 
Q 28.515625 5.71875 32.46875 7.9375 
Q 36.421875 10.15625 38.28125 14.015625 
Q 39.703125 17 39.703125 22.796875 
z
" id="ArialMT-97"/>
      <path d="M 40.4375 19 
L 49.078125 17.875 
Q 47.65625 8.9375 41.8125 3.875 
Q 35.984375 -1.171875 27.484375 -1.171875 
Q 16.84375 -1.171875 10.375 5.78125 
Q 3.90625 12.75 3.90625 25.734375 
Q 3.90625 34.125 6.6875 40.421875 
Q 9.46875 46.734375 15.15625 49.875 
Q 20.84375 53.03125 27.546875 53.03125 
Q 35.984375 53.03125 41.359375 48.75 
Q 46.734375 44.484375 48.25 36.625 
L 39.703125 35.296875 
Q 38.484375 40.53125 35.375 43.15625 
Q 32.28125 45.796875 27.875 45.796875 
Q 21.234375 45.796875 17.078125 41.03125 
Q 12.9375 36.28125 12.9375 25.984375 
Q 12.9375 15.53125 16.9375 10.796875 
Q 20.953125 6.0625 27.390625 6.0625 
Q 32.5625 6.0625 36.03125 9.234375 
Q 39.5 12.40625 40.4375 19 
z
" id="ArialMT-99"/>
      <path d="M 6.59375 0 
L 6.59375 51.859375 
L 14.453125 51.859375 
L 14.453125 44.578125 
Q 16.890625 48.390625 20.9375 50.703125 
Q 25 53.03125 30.171875 53.03125 
Q 35.9375 53.03125 39.625 50.640625 
Q 43.3125 48.25 44.828125 43.953125 
Q 50.984375 53.03125 60.84375 53.03125 
Q 68.5625 53.03125 72.703125 48.75 
Q 76.859375 44.484375 76.859375 35.59375 
L 76.859375 0 
L 68.109375 0 
L 68.109375 32.671875 
Q 68.109375 37.9375 67.25 40.25 
Q 66.40625 42.578125 64.15625 43.984375 
Q 61.921875 45.40625 58.890625 45.40625 
Q 53.421875 45.40625 49.796875 41.765625 
Q 46.1875 38.140625 46.1875 30.125 
L 46.1875 0 
L 37.40625 0 
L 37.40625 33.6875 
Q 37.40625 39.546875 35.25 42.46875 
Q 33.109375 45.40625 28.21875 45.40625 
Q 24.515625 45.40625 21.359375 43.453125 
Q 18.21875 41.5 16.796875 37.734375 
Q 15.375 33.984375 15.375 26.90625 
L 15.375 0 
z
" id="ArialMT-109"/>
     </defs>
     <g style="fill:#262626;" transform="translate(53.766888 178.64375)rotate(-90)scale(0.18 -0.18)">
      <use xlink:href="#ArialMT-100"/>
      <use x="55.615234" xlink:href="#ArialMT-101"/>
      <use x="111.230469" xlink:href="#ArialMT-108"/>
      <use x="133.447266" xlink:href="#ArialMT-66"/>
      <use x="200.146484" xlink:href="#ArialMT-69"/>
      <use x="266.845703" xlink:href="#ArialMT-95"/>
      <use x="322.460938" xlink:href="#ArialMT-97"/>
      <use x="378.076172" xlink:href="#ArialMT-108"/>
      <use x="400.292969" xlink:href="#ArialMT-99"/>
      <use x="450.292969" xlink:href="#ArialMT-95"/>
      <use x="505.908203" xlink:href="#ArialMT-109"/>
      <use x="589.208984" xlink:href="#ArialMT-108"/>
     </g>
    </g>
   </g>
   <g id="PathCollection_1">
    <defs>
     <path d="M 0 3 
C 0.795609 3 1.55874 2.683901 2.12132 2.12132 
C 2.683901 1.55874 3 0.795609 3 0 
C 3 -0.795609 2.683901 -1.55874 2.12132 -2.12132 
C 1.55874 -2.683901 0.795609 -3 0 -3 
C -0.795609 -3 -1.55874 -2.683901 -2.12132 -2.12132 
C -2.683901 -1.55874 -3 -0.795609 -3 0 
C -3 0.795609 -2.683901 1.55874 -2.12132 2.12132 
C -1.55874 2.683901 -0.795609 3 0 3 
z
" id="m45cdf0b7ce" style="stroke:#1a1a1a;"/>
    </defs>
    <g clip-path="url(#p0454b17873)">
     <use style="fill:#4c72b0;stroke:#1a1a1a;" x="194.169128" xlink:href="#m45cdf0b7ce" y="115.773843"/>
     <use style="fill:#4c72b0;stroke:#1a1a1a;" x="179.569296" xlink:href="#m45cdf0b7ce" y="130.563907"/>
     <use style="fill:#4c72b0;stroke:#1a1a1a;" x="178.439824" xlink:href="#m45cdf0b7ce" y="129.206961"/>
     <use style="fill:#4c72b0;stroke:#1a1a1a;" x="193.065986" xlink:href="#m45cdf0b7ce" y="117.925712"/>
     <use style="fill:#4c72b0;stroke:#1a1a1a;" x="210.129377" xlink:href="#m45cdf0b7ce" y="99.679056"/>
     <use style="fill:#4c72b0;stroke:#1a1a1a;" x="163.277681" xlink:href="#m45cdf0b7ce" y="145.623126"/>
     <use style="fill:#4c72b0;stroke:#1a1a1a;" x="173.212742" xlink:href="#m45cdf0b7ce" y="138.366383"/>
     <use style="fill:#4c72b0;stroke:#1a1a1a;" x="154.941144" xlink:href="#m45cdf0b7ce" y="158.218289"/>
     <use style="fill:#4c72b0;stroke:#1a1a1a;" x="197.595772" xlink:href="#m45cdf0b7ce" y="113.534998"/>
     <use style="fill:#4c72b0;stroke:#1a1a1a;" x="185.311581" xlink:href="#m45cdf0b7ce" y="124.117309"/>
     <use style="fill:#4c72b0;stroke:#1a1a1a;" x="181.927315" xlink:href="#m45cdf0b7ce" y="127.439886"/>
     <use style="fill:#4c72b0;stroke:#1a1a1a;" x="165.564536" xlink:href="#m45cdf0b7ce" y="145.81814"/>
     <use style="fill:#4c72b0;stroke:#1a1a1a;" x="196.014309" xlink:href="#m45cdf0b7ce" y="115.426902"/>
     <use style="fill:#4c72b0;stroke:#1a1a1a;" x="163.435746" xlink:href="#m45cdf0b7ce" y="147.372231"/>
     <use style="fill:#4c72b0;stroke:#1a1a1a;" x="167.113144" xlink:href="#m45cdf0b7ce" y="144.482055"/>
     <use style="fill:#4c72b0;stroke:#1a1a1a;" x="192.040836" xlink:href="#m45cdf0b7ce" y="117.858358"/>
     <use style="fill:#4c72b0;stroke:#1a1a1a;" x="195.57182" xlink:href="#m45cdf0b7ce" y="116.344512"/>
     <use style="fill:#4c72b0;stroke:#1a1a1a;" x="217.872879" xlink:href="#m45cdf0b7ce" y="90.120065"/>
     <use style="fill:#4c72b0;stroke:#1a1a1a;" x="171.894842" xlink:href="#m45cdf0b7ce" y="137.923669"/>
     <use style="fill:#4c72b0;stroke:#1a1a1a;" x="166.743445" xlink:href="#m45cdf0b7ce" y="144.649461"/>
     <use style="fill:#4c72b0;stroke:#1a1a1a;" x="166.326073" xlink:href="#m45cdf0b7ce" y="144.68402"/>
     <use style="fill:#4c72b0;stroke:#1a1a1a;" x="193.080302" xlink:href="#m45cdf0b7ce" y="117.445799"/>
     <use style="fill:#4c72b0;stroke:#1a1a1a;" x="197.011443" xlink:href="#m45cdf0b7ce" y="114.214624"/>
     <use style="fill:#4c72b0;stroke:#1a1a1a;" x="193.080395" xlink:href="#m45cdf0b7ce" y="116.740135"/>
     <use style="fill:#4c72b0;stroke:#1a1a1a;" x="176.187663" xlink:href="#m45cdf0b7ce" y="133.500391"/>
     <use style="fill:#4c72b0;stroke:#1a1a1a;" x="202.771394" xlink:href="#m45cdf0b7ce" y="109.105973"/>
     <use style="fill:#4c72b0;stroke:#1a1a1a;" x="216.156123" xlink:href="#m45cdf0b7ce" y="91.530794"/>
     <use style="fill:#4c72b0;stroke:#1a1a1a;" x="176.187333" xlink:href="#m45cdf0b7ce" y="133.450445"/>
     <use style="fill:#4c72b0;stroke:#1a1a1a;" x="194.390547" xlink:href="#m45cdf0b7ce" y="116.386019"/>
     <use style="fill:#4c72b0;stroke:#1a1a1a;" x="154.943858" xlink:href="#m45cdf0b7ce" y="158.225618"/>
     <use style="fill:#4c72b0;stroke:#1a1a1a;" x="176.348474" xlink:href="#m45cdf0b7ce" y="135.211535"/>
     <use style="fill:#4c72b0;stroke:#1a1a1a;" x="176.106752" xlink:href="#m45cdf0b7ce" y="135.583819"/>
     <use style="fill:#4c72b0;stroke:#1a1a1a;" x="202.25753" xlink:href="#m45cdf0b7ce" y="107.836072"/>
     <use style="fill:#4c72b0;stroke:#1a1a1a;" x="191.706619" xlink:href="#m45cdf0b7ce" y="119.464581"/>
     <use style="fill:#4c72b0;stroke:#1a1a1a;" x="171.672178" xlink:href="#m45cdf0b7ce" y="137.436754"/>
     <use style="fill:#4c72b0;stroke:#1a1a1a;" x="208.146554" xlink:href="#m45cdf0b7ce" y="101.492418"/>
     <use style="fill:#4c72b0;stroke:#1a1a1a;" x="164.356696" xlink:href="#m45cdf0b7ce" y="144.540972"/>
     <use style="fill:#4c72b0;stroke:#1a1a1a;" x="201.555408" xlink:href="#m45cdf0b7ce" y="109.400652"/>
     <use style="fill:#4c72b0;stroke:#1a1a1a;" x="173.722278" xlink:href="#m45cdf0b7ce" y="137.559012"/>
     <use style="fill:#4c72b0;stroke:#1a1a1a;" x="191.271377" xlink:href="#m45cdf0b7ce" y="118.3337"/>
     <use style="fill:#4c72b0;stroke:#1a1a1a;" x="156.492935" xlink:href="#m45cdf0b7ce" y="154.738097"/>
     <use style="fill:#4c72b0;stroke:#1a1a1a;" x="192.513167" xlink:href="#m45cdf0b7ce" y="117.940934"/>
     <use style="fill:#4c72b0;stroke:#1a1a1a;" x="191.381378" xlink:href="#m45cdf0b7ce" y="118.311626"/>
     <use style="fill:#4c72b0;stroke:#1a1a1a;" x="175.655721" xlink:href="#m45cdf0b7ce" y="133.899771"/>
     <use style="fill:#4c72b0;stroke:#1a1a1a;" x="173.896992" xlink:href="#m45cdf0b7ce" y="136.936609"/>
     <use style="fill:#4c72b0;stroke:#1a1a1a;" x="208.411817" xlink:href="#m45cdf0b7ce" y="102.065152"/>
     <use style="fill:#4c72b0;stroke:#1a1a1a;" x="184.628644" xlink:href="#m45cdf0b7ce" y="126.27605"/>
     <use style="fill:#4c72b0;stroke:#1a1a1a;" x="177.007419" xlink:href="#m45cdf0b7ce" y="134.700982"/>
     <use style="fill:#4c72b0;stroke:#1a1a1a;" x="181.372373" xlink:href="#m45cdf0b7ce" y="129.619865"/>
     <use style="fill:#4c72b0;stroke:#1a1a1a;" x="172.982451" xlink:href="#m45cdf0b7ce" y="136.849598"/>
     <use style="fill:#4c72b0;stroke:#1a1a1a;" x="193.686256" xlink:href="#m45cdf0b7ce" y="117.439075"/>
     <use style="fill:#4c72b0;stroke:#1a1a1a;" x="172.661233" xlink:href="#m45cdf0b7ce" y="137.491095"/>
     <use style="fill:#4c72b0;stroke:#1a1a1a;" x="173.72184" xlink:href="#m45cdf0b7ce" y="136.951811"/>
     <use style="fill:#4c72b0;stroke:#1a1a1a;" x="172.385253" xlink:href="#m45cdf0b7ce" y="138.016795"/>
     <use style="fill:#4c72b0;stroke:#1a1a1a;" x="170.567676" xlink:href="#m45cdf0b7ce" y="140.948075"/>
     <use style="fill:#4c72b0;stroke:#1a1a1a;" x="196.365108" xlink:href="#m45cdf0b7ce" y="112.741612"/>
     <use style="fill:#4c72b0;stroke:#1a1a1a;" x="217.869256" xlink:href="#m45cdf0b7ce" y="90.33326"/>
     <use style="fill:#4c72b0;stroke:#1a1a1a;" x="179.624196" xlink:href="#m45cdf0b7ce" y="128.347711"/>
     <use style="fill:#4c72b0;stroke:#1a1a1a;" x="202.270446" xlink:href="#m45cdf0b7ce" y="108.732223"/>
     <use style="fill:#4c72b0;stroke:#1a1a1a;" x="164.356166" xlink:href="#m45cdf0b7ce" y="143.775704"/>
     <use style="fill:#4c72b0;stroke:#1a1a1a;" x="181.089924" xlink:href="#m45cdf0b7ce" y="128.485386"/>
     <use style="fill:#4c72b0;stroke:#1a1a1a;" x="176.757239" xlink:href="#m45cdf0b7ce" y="132.736892"/>
     <use style="fill:#4c72b0;stroke:#1a1a1a;" x="193.256298" xlink:href="#m45cdf0b7ce" y="118.244872"/>
     <use style="fill:#4c72b0;stroke:#1a1a1a;" x="172.196337" xlink:href="#m45cdf0b7ce" y="140.372274"/>
     <use style="fill:#4c72b0;stroke:#1a1a1a;" x="165.62815" xlink:href="#m45cdf0b7ce" y="143.561234"/>
     <use style="fill:#4c72b0;stroke:#1a1a1a;" x="192.057297" xlink:href="#m45cdf0b7ce" y="118.909532"/>
     <use style="fill:#4c72b0;stroke:#1a1a1a;" x="194.626252" xlink:href="#m45cdf0b7ce" y="114.817741"/>
     <use style="fill:#4c72b0;stroke:#1a1a1a;" x="164.35589" xlink:href="#m45cdf0b7ce" y="143.216003"/>
     <use style="fill:#4c72b0;stroke:#1a1a1a;" x="169.963862" xlink:href="#m45cdf0b7ce" y="140.235676"/>
     <use style="fill:#4c72b0;stroke:#1a1a1a;" x="172.017301" xlink:href="#m45cdf0b7ce" y="142.198747"/>
     <use style="fill:#4c72b0;stroke:#1a1a1a;" x="193.322614" xlink:href="#m45cdf0b7ce" y="117.578242"/>
     <use style="fill:#4c72b0;stroke:#1a1a1a;" x="156.740555" xlink:href="#m45cdf0b7ce" y="150.508959"/>
     <use style="fill:#4c72b0;stroke:#1a1a1a;" x="196.418194" xlink:href="#m45cdf0b7ce" y="115.254024"/>
     <use style="fill:#4c72b0;stroke:#1a1a1a;" x="175.875426" xlink:href="#m45cdf0b7ce" y="133.347377"/>
     <use style="fill:#4c72b0;stroke:#1a1a1a;" x="192.279508" xlink:href="#m45cdf0b7ce" y="118.011671"/>
     <use style="fill:#4c72b0;stroke:#1a1a1a;" x="188.7328" xlink:href="#m45cdf0b7ce" y="122.926143"/>
     <use style="fill:#4c72b0;stroke:#1a1a1a;" x="191.261633" xlink:href="#m45cdf0b7ce" y="117.91081"/>
     <use style="fill:#4c72b0;stroke:#1a1a1a;" x="191.262027" xlink:href="#m45cdf0b7ce" y="117.87953"/>
     <use style="fill:#4c72b0;stroke:#1a1a1a;" x="177.085677" xlink:href="#m45cdf0b7ce" y="134.003489"/>
     <use style="fill:#4c72b0;stroke:#1a1a1a;" x="179.655433" xlink:href="#m45cdf0b7ce" y="131.277437"/>
     <use style="fill:#4c72b0;stroke:#1a1a1a;" x="191.08491" xlink:href="#m45cdf0b7ce" y="120.539869"/>
     <use style="fill:#4c72b0;stroke:#1a1a1a;" x="166.330839" xlink:href="#m45cdf0b7ce" y="143.957002"/>
     <use style="fill:#4c72b0;stroke:#1a1a1a;" x="185.869206" xlink:href="#m45cdf0b7ce" y="125.72701"/>
     <use style="fill:#4c72b0;stroke:#1a1a1a;" x="165.126967" xlink:href="#m45cdf0b7ce" y="143.576927"/>
     <use style="fill:#4c72b0;stroke:#1a1a1a;" x="195.003358" xlink:href="#m45cdf0b7ce" y="115.175866"/>
     <use style="fill:#4c72b0;stroke:#1a1a1a;" x="176.309332" xlink:href="#m45cdf0b7ce" y="134.14138"/>
     <use style="fill:#4c72b0;stroke:#1a1a1a;" x="176.308983" xlink:href="#m45cdf0b7ce" y="134.219572"/>
     <use style="fill:#4c72b0;stroke:#1a1a1a;" x="187.149739" xlink:href="#m45cdf0b7ce" y="122.726084"/>
     <use style="fill:#4c72b0;stroke:#1a1a1a;" x="196.017774" xlink:href="#m45cdf0b7ce" y="115.725146"/>
     <use style="fill:#4c72b0;stroke:#1a1a1a;" x="175.765013" xlink:href="#m45cdf0b7ce" y="134.823744"/>
     <use style="fill:#4c72b0;stroke:#1a1a1a;" x="171.081731" xlink:href="#m45cdf0b7ce" y="137.959356"/>
     <use style="fill:#4c72b0;stroke:#1a1a1a;" x="145.891042" xlink:href="#m45cdf0b7ce" y="176.802041"/>
     <use style="fill:#4c72b0;stroke:#1a1a1a;" x="195.881323" xlink:href="#m45cdf0b7ce" y="114.982146"/>
     <use style="fill:#4c72b0;stroke:#1a1a1a;" x="172.581895" xlink:href="#m45cdf0b7ce" y="138.359537"/>
     <use style="fill:#4c72b0;stroke:#1a1a1a;" x="185.136411" xlink:href="#m45cdf0b7ce" y="127.455128"/>
     <use style="fill:#4c72b0;stroke:#1a1a1a;" x="194.990862" xlink:href="#m45cdf0b7ce" y="114.161327"/>
     <use style="fill:#4c72b0;stroke:#1a1a1a;" x="178.155884" xlink:href="#m45cdf0b7ce" y="130.996065"/>
     <use style="fill:#4c72b0;stroke:#1a1a1a;" x="188.639545" xlink:href="#m45cdf0b7ce" y="123.021388"/>
     <use style="fill:#4c72b0;stroke:#1a1a1a;" x="192.696762" xlink:href="#m45cdf0b7ce" y="118.643879"/>
     <use style="fill:#4c72b0;stroke:#1a1a1a;" x="187.057991" xlink:href="#m45cdf0b7ce" y="124.658311"/>
     <use style="fill:#4c72b0;stroke:#1a1a1a;" x="198.801157" xlink:href="#m45cdf0b7ce" y="112.119521"/>
     <use style="fill:#4c72b0;stroke:#1a1a1a;" x="196.01434" xlink:href="#m45cdf0b7ce" y="115.334407"/>
     <use style="fill:#4c72b0;stroke:#1a1a1a;" x="165.638126" xlink:href="#m45cdf0b7ce" y="143.701545"/>
     <use style="fill:#4c72b0;stroke:#1a1a1a;" x="196.418344" xlink:href="#m45cdf0b7ce" y="115.990725"/>
     <use style="fill:#4c72b0;stroke:#1a1a1a;" x="164.356227" xlink:href="#m45cdf0b7ce" y="143.999408"/>
     <use style="fill:#4c72b0;stroke:#1a1a1a;" x="171.079163" xlink:href="#m45cdf0b7ce" y="138.607778"/>
     <use style="fill:#4c72b0;stroke:#1a1a1a;" x="174.665998" xlink:href="#m45cdf0b7ce" y="136.150592"/>
     <use style="fill:#4c72b0;stroke:#1a1a1a;" x="185.60569" xlink:href="#m45cdf0b7ce" y="124.490113"/>
     <use style="fill:#4c72b0;stroke:#1a1a1a;" x="195.649895" xlink:href="#m45cdf0b7ce" y="114.961327"/>
     <use style="fill:#4c72b0;stroke:#1a1a1a;" x="203.812967" xlink:href="#m45cdf0b7ce" y="107.449326"/>
     <use style="fill:#4c72b0;stroke:#1a1a1a;" x="185.963407" xlink:href="#m45cdf0b7ce" y="123.931686"/>
     <use style="fill:#4c72b0;stroke:#1a1a1a;" x="163.811641" xlink:href="#m45cdf0b7ce" y="145.064291"/>
     <use style="fill:#4c72b0;stroke:#1a1a1a;" x="191.239418" xlink:href="#m45cdf0b7ce" y="118.949594"/>
     <use style="fill:#4c72b0;stroke:#1a1a1a;" x="195.033279" xlink:href="#m45cdf0b7ce" y="115.71606"/>
     <use style="fill:#4c72b0;stroke:#1a1a1a;" x="176.308986" xlink:href="#m45cdf0b7ce" y="134.435738"/>
     <use style="fill:#4c72b0;stroke:#1a1a1a;" x="201.555403" xlink:href="#m45cdf0b7ce" y="109.327557"/>
     <use style="fill:#4c72b0;stroke:#1a1a1a;" x="193.575593" xlink:href="#m45cdf0b7ce" y="117.53503"/>
     <use style="fill:#4c72b0;stroke:#1a1a1a;" x="181.926883" xlink:href="#m45cdf0b7ce" y="127.582752"/>
     <use style="fill:#4c72b0;stroke:#1a1a1a;" x="186.340668" xlink:href="#m45cdf0b7ce" y="122.830495"/>
     <use style="fill:#4c72b0;stroke:#1a1a1a;" x="184.365949" xlink:href="#m45cdf0b7ce" y="126.366125"/>
     <use style="fill:#4c72b0;stroke:#1a1a1a;" x="183.16903" xlink:href="#m45cdf0b7ce" y="123.86357"/>
     <use style="fill:#4c72b0;stroke:#1a1a1a;" x="179.593572" xlink:href="#m45cdf0b7ce" y="131.689613"/>
     <use style="fill:#4c72b0;stroke:#1a1a1a;" x="193.575695" xlink:href="#m45cdf0b7ce" y="116.877198"/>
     <use style="fill:#4c72b0;stroke:#1a1a1a;" x="176.728851" xlink:href="#m45cdf0b7ce" y="133.340715"/>
     <use style="fill:#4c72b0;stroke:#1a1a1a;" x="162.714949" xlink:href="#m45cdf0b7ce" y="146.923865"/>
     <use style="fill:#4c72b0;stroke:#1a1a1a;" x="159.837422" xlink:href="#m45cdf0b7ce" y="150.816864"/>
     <use style="fill:#4c72b0;stroke:#1a1a1a;" x="180.176215" xlink:href="#m45cdf0b7ce" y="131.533503"/>
     <use style="fill:#4c72b0;stroke:#1a1a1a;" x="197.219777" xlink:href="#m45cdf0b7ce" y="113.453391"/>
     <use style="fill:#4c72b0;stroke:#1a1a1a;" x="204.061821" xlink:href="#m45cdf0b7ce" y="107.417217"/>
     <use style="fill:#4c72b0;stroke:#1a1a1a;" x="169.392449" xlink:href="#m45cdf0b7ce" y="140.847752"/>
     <use style="fill:#4c72b0;stroke:#1a1a1a;" x="158.408656" xlink:href="#m45cdf0b7ce" y="150.671304"/>
     <use style="fill:#4c72b0;stroke:#1a1a1a;" x="191.415044" xlink:href="#m45cdf0b7ce" y="118.397091"/>
     <use style="fill:#4c72b0;stroke:#1a1a1a;" x="196.648393" xlink:href="#m45cdf0b7ce" y="112.821427"/>
     <use style="fill:#4c72b0;stroke:#1a1a1a;" x="187.235095" xlink:href="#m45cdf0b7ce" y="124.743964"/>
     <use style="fill:#4c72b0;stroke:#1a1a1a;" x="183.588703" xlink:href="#m45cdf0b7ce" y="125.131338"/>
     <use style="fill:#4c72b0;stroke:#1a1a1a;" x="186.34012" xlink:href="#m45cdf0b7ce" y="124.698334"/>
     <use style="fill:#4c72b0;stroke:#1a1a1a;" x="160.302162" xlink:href="#m45cdf0b7ce" y="149.430166"/>
     <use style="fill:#4c72b0;stroke:#1a1a1a;" x="169.663433" xlink:href="#m45cdf0b7ce" y="140.698312"/>
     <use style="fill:#4c72b0;stroke:#1a1a1a;" x="184.206218" xlink:href="#m45cdf0b7ce" y="127.14606"/>
     <use style="fill:#4c72b0;stroke:#1a1a1a;" x="162.757808" xlink:href="#m45cdf0b7ce" y="147.473855"/>
     <use style="fill:#4c72b0;stroke:#1a1a1a;" x="186.395067" xlink:href="#m45cdf0b7ce" y="124.307313"/>
     <use style="fill:#4c72b0;stroke:#1a1a1a;" x="183.320496" xlink:href="#m45cdf0b7ce" y="127.276044"/>
     <use style="fill:#4c72b0;stroke:#1a1a1a;" x="163.81351" xlink:href="#m45cdf0b7ce" y="145.855355"/>
     <use style="fill:#4c72b0;stroke:#1a1a1a;" x="182.154324" xlink:href="#m45cdf0b7ce" y="127.021993"/>
     <use style="fill:#4c72b0;stroke:#1a1a1a;" x="201.161653" xlink:href="#m45cdf0b7ce" y="110.523553"/>
     <use style="fill:#4c72b0;stroke:#1a1a1a;" x="164.356211" xlink:href="#m45cdf0b7ce" y="144.896996"/>
     <use style="fill:#4c72b0;stroke:#1a1a1a;" x="196.237058" xlink:href="#m45cdf0b7ce" y="114.498435"/>
     <use style="fill:#4c72b0;stroke:#1a1a1a;" x="195.886859" xlink:href="#m45cdf0b7ce" y="115.8179"/>
     <use style="fill:#4c72b0;stroke:#1a1a1a;" x="185.840573" xlink:href="#m45cdf0b7ce" y="124.409502"/>
     <use style="fill:#4c72b0;stroke:#1a1a1a;" x="192.850516" xlink:href="#m45cdf0b7ce" y="118.555048"/>
     <use style="fill:#4c72b0;stroke:#1a1a1a;" x="185.840584" xlink:href="#m45cdf0b7ce" y="124.266819"/>
     <use style="fill:#4c72b0;stroke:#1a1a1a;" x="163.262924" xlink:href="#m45cdf0b7ce" y="145.304136"/>
     <use style="fill:#4c72b0;stroke:#1a1a1a;" x="186.464253" xlink:href="#m45cdf0b7ce" y="124.869898"/>
     <use style="fill:#4c72b0;stroke:#1a1a1a;" x="166.843554" xlink:href="#m45cdf0b7ce" y="144.877374"/>
     <use style="fill:#4c72b0;stroke:#1a1a1a;" x="198.112126" xlink:href="#m45cdf0b7ce" y="113.64888"/>
     <use style="fill:#4c72b0;stroke:#1a1a1a;" x="180.120781" xlink:href="#m45cdf0b7ce" y="131.68558"/>
     <use style="fill:#4c72b0;stroke:#1a1a1a;" x="187.253622" xlink:href="#m45cdf0b7ce" y="123.280559"/>
     <use style="fill:#4c72b0;stroke:#1a1a1a;" x="210.130211" xlink:href="#m45cdf0b7ce" y="100.477551"/>
     <use style="fill:#4c72b0;stroke:#1a1a1a;" x="187.383507" xlink:href="#m45cdf0b7ce" y="124.759534"/>
     <use style="fill:#4c72b0;stroke:#1a1a1a;" x="202.270419" xlink:href="#m45cdf0b7ce" y="108.713323"/>
     <use style="fill:#4c72b0;stroke:#1a1a1a;" x="157.0101" xlink:href="#m45cdf0b7ce" y="153.600985"/>
     <use style="fill:#4c72b0;stroke:#1a1a1a;" x="171.516618" xlink:href="#m45cdf0b7ce" y="139.950977"/>
     <use style="fill:#4c72b0;stroke:#1a1a1a;" x="186.340094" xlink:href="#m45cdf0b7ce" y="124.614412"/>
     <use style="fill:#4c72b0;stroke:#1a1a1a;" x="191.381363" xlink:href="#m45cdf0b7ce" y="118.532235"/>
     <use style="fill:#4c72b0;stroke:#1a1a1a;" x="169.019969" xlink:href="#m45cdf0b7ce" y="142.090167"/>
     <use style="fill:#4c72b0;stroke:#1a1a1a;" x="171.672174" xlink:href="#m45cdf0b7ce" y="137.911761"/>
     <use style="fill:#4c72b0;stroke:#1a1a1a;" x="172.644479" xlink:href="#m45cdf0b7ce" y="137.435147"/>
     <use style="fill:#4c72b0;stroke:#1a1a1a;" x="185.294125" xlink:href="#m45cdf0b7ce" y="126.117408"/>
     <use style="fill:#4c72b0;stroke:#1a1a1a;" x="180.396529" xlink:href="#m45cdf0b7ce" y="130.476812"/>
     <use style="fill:#4c72b0;stroke:#1a1a1a;" x="210.345418" xlink:href="#m45cdf0b7ce" y="101.329688"/>
     <use style="fill:#4c72b0;stroke:#1a1a1a;" x="160.71059" xlink:href="#m45cdf0b7ce" y="151.113365"/>
     <use style="fill:#4c72b0;stroke:#1a1a1a;" x="158.882633" xlink:href="#m45cdf0b7ce" y="152.760568"/>
     <use style="fill:#4c72b0;stroke:#1a1a1a;" x="166.325241" xlink:href="#m45cdf0b7ce" y="144.655145"/>
     <use style="fill:#4c72b0;stroke:#1a1a1a;" x="166.378973" xlink:href="#m45cdf0b7ce" y="142.33464"/>
     <use style="fill:#4c72b0;stroke:#1a1a1a;" x="162.714899" xlink:href="#m45cdf0b7ce" y="145.552828"/>
     <use style="fill:#4c72b0;stroke:#1a1a1a;" x="174.140799" xlink:href="#m45cdf0b7ce" y="135.419135"/>
     <use style="fill:#4c72b0;stroke:#1a1a1a;" x="176.706849" xlink:href="#m45cdf0b7ce" y="133.229426"/>
     <use style="fill:#4c72b0;stroke:#1a1a1a;" x="186.433651" xlink:href="#m45cdf0b7ce" y="124.555359"/>
     <use style="fill:#4c72b0;stroke:#1a1a1a;" x="191.161599" xlink:href="#m45cdf0b7ce" y="120.353026"/>
     <use style="fill:#4c72b0;stroke:#1a1a1a;" x="157.011335" xlink:href="#m45cdf0b7ce" y="153.674139"/>
     <use style="fill:#4c72b0;stroke:#1a1a1a;" x="179.466623" xlink:href="#m45cdf0b7ce" y="129.868663"/>
     <use style="fill:#4c72b0;stroke:#1a1a1a;" x="195.076146" xlink:href="#m45cdf0b7ce" y="114.612168"/>
     <use style="fill:#4c72b0;stroke:#1a1a1a;" x="165.637713" xlink:href="#m45cdf0b7ce" y="144.565388"/>
     <use style="fill:#4c72b0;stroke:#1a1a1a;" x="181.926884" xlink:href="#m45cdf0b7ce" y="127.373969"/>
     <use style="fill:#4c72b0;stroke:#1a1a1a;" x="195.530703" xlink:href="#m45cdf0b7ce" y="114.263523"/>
     <use style="fill:#4c72b0;stroke:#1a1a1a;" x="197.467267" xlink:href="#m45cdf0b7ce" y="113.99516"/>
     <use style="fill:#4c72b0;stroke:#1a1a1a;" x="202.257421" xlink:href="#m45cdf0b7ce" y="108.369081"/>
     <use style="fill:#4c72b0;stroke:#1a1a1a;" x="171.870333" xlink:href="#m45cdf0b7ce" y="139.678223"/>
     <use style="fill:#4c72b0;stroke:#1a1a1a;" x="179.591423" xlink:href="#m45cdf0b7ce" y="130.819248"/>
     <use style="fill:#4c72b0;stroke:#1a1a1a;" x="194.382469" xlink:href="#m45cdf0b7ce" y="114.976418"/>
     <use style="fill:#4c72b0;stroke:#1a1a1a;" x="170.326353" xlink:href="#m45cdf0b7ce" y="138.560223"/>
     <use style="fill:#4c72b0;stroke:#1a1a1a;" x="173.896993" xlink:href="#m45cdf0b7ce" y="136.358641"/>
     <use style="fill:#4c72b0;stroke:#1a1a1a;" x="183.228747" xlink:href="#m45cdf0b7ce" y="131.210383"/>
     <use style="fill:#4c72b0;stroke:#1a1a1a;" x="176.728531" xlink:href="#m45cdf0b7ce" y="132.826718"/>
     <use style="fill:#4c72b0;stroke:#1a1a1a;" x="202.270385" xlink:href="#m45cdf0b7ce" y="108.908598"/>
     <use style="fill:#4c72b0;stroke:#1a1a1a;" x="194.060438" xlink:href="#m45cdf0b7ce" y="116.049258"/>
     <use style="fill:#4c72b0;stroke:#1a1a1a;" x="196.339382" xlink:href="#m45cdf0b7ce" y="115.480781"/>
     <use style="fill:#4c72b0;stroke:#1a1a1a;" x="163.435875" xlink:href="#m45cdf0b7ce" y="147.615347"/>
     <use style="fill:#4c72b0;stroke:#1a1a1a;" x="152.364578" xlink:href="#m45cdf0b7ce" y="161.206944"/>
     <use style="fill:#4c72b0;stroke:#1a1a1a;" x="182.749536" xlink:href="#m45cdf0b7ce" y="127.615915"/>
     <use style="fill:#4c72b0;stroke:#1a1a1a;" x="186.12873" xlink:href="#m45cdf0b7ce" y="124.479777"/>
     <use style="fill:#4c72b0;stroke:#1a1a1a;" x="185.192822" xlink:href="#m45cdf0b7ce" y="124.189927"/>
     <use style="fill:#4c72b0;stroke:#1a1a1a;" x="191.381362" xlink:href="#m45cdf0b7ce" y="118.797613"/>
     <use style="fill:#4c72b0;stroke:#1a1a1a;" x="179.259691" xlink:href="#m45cdf0b7ce" y="129.345176"/>
     <use style="fill:#4c72b0;stroke:#1a1a1a;" x="191.673118" xlink:href="#m45cdf0b7ce" y="118.210949"/>
     <use style="fill:#4c72b0;stroke:#1a1a1a;" x="195.003927" xlink:href="#m45cdf0b7ce" y="115.682553"/>
     <use style="fill:#4c72b0;stroke:#1a1a1a;" x="201.555535" xlink:href="#m45cdf0b7ce" y="108.935889"/>
     <use style="fill:#4c72b0;stroke:#1a1a1a;" x="173.896594" xlink:href="#m45cdf0b7ce" y="135.522108"/>
     <use style="fill:#4c72b0;stroke:#1a1a1a;" x="169.963658" xlink:href="#m45cdf0b7ce" y="140.570007"/>
     <use style="fill:#4c72b0;stroke:#1a1a1a;" x="180.758559" xlink:href="#m45cdf0b7ce" y="128.193074"/>
     <use style="fill:#4c72b0;stroke:#1a1a1a;" x="186.301766" xlink:href="#m45cdf0b7ce" y="124.027548"/>
     <use style="fill:#4c72b0;stroke:#1a1a1a;" x="196.667343" xlink:href="#m45cdf0b7ce" y="112.809742"/>
     <use style="fill:#4c72b0;stroke:#1a1a1a;" x="167.1134" xlink:href="#m45cdf0b7ce" y="144.832072"/>
     <use style="fill:#4c72b0;stroke:#1a1a1a;" x="171.211164" xlink:href="#m45cdf0b7ce" y="139.016805"/>
     <use style="fill:#4c72b0;stroke:#1a1a1a;" x="171.737393" xlink:href="#m45cdf0b7ce" y="139.124081"/>
     <use style="fill:#4c72b0;stroke:#1a1a1a;" x="193.528158" xlink:href="#m45cdf0b7ce" y="116.184441"/>
     <use style="fill:#4c72b0;stroke:#1a1a1a;" x="171.207434" xlink:href="#m45cdf0b7ce" y="140.882605"/>
     <use style="fill:#4c72b0;stroke:#1a1a1a;" x="176.705129" xlink:href="#m45cdf0b7ce" y="132.901703"/>
     <use style="fill:#4c72b0;stroke:#1a1a1a;" x="191.481127" xlink:href="#m45cdf0b7ce" y="118.868432"/>
    </g>
   </g>
   <g id="line2d_1">
    <path clip-path="url(#p0454b17873)" d="M 89.656966 220.946454 
L 101.823125 208.780296 
L 113.989283 196.614138 
L 126.155441 184.447979 
L 138.3216 172.281821 
L 150.487758 160.115663 
L 162.653916 147.949504 
L 174.820075 135.783346 
L 186.986233 123.617188 
L 199.152391 111.451029 
L 211.31855 99.284871 
L 223.484708 87.118712 
L 235.650867 74.952554 
L 247.817025 62.786396 
L 259.983183 50.620237 
L 272.149342 38.454079 
" style="fill:none;stroke:#1a1a1a;stroke-linecap:round;stroke-width:1.5;"/>
   </g>
   <g id="patch_3">
    <path d="M 89.656966 220.946454 
L 89.656966 26.287921 
" style="fill:none;stroke:#262626;stroke-linecap:square;stroke-linejoin:miter;stroke-width:1.25;"/>
   </g>
   <g id="patch_4">
    <path d="M 89.656966 220.946454 
L 284.3155 220.946454 
" style="fill:none;stroke:#262626;stroke-linecap:square;stroke-linejoin:miter;stroke-width:1.25;"/>
   </g>
   <g id="text_9">
    <!-- OHx_ML.svg -->
    <defs>
     <path d="M 4.828125 34.859375 
Q 4.828125 52.6875 14.390625 62.765625 
Q 23.96875 72.859375 39.109375 72.859375 
Q 49.03125 72.859375 56.984375 68.109375 
Q 64.9375 63.375 69.109375 54.90625 
Q 73.296875 46.4375 73.296875 35.6875 
Q 73.296875 24.8125 68.890625 16.21875 
Q 64.5 7.625 56.4375 3.203125 
Q 48.390625 -1.21875 39.0625 -1.21875 
Q 28.953125 -1.21875 20.984375 3.65625 
Q 13.03125 8.546875 8.921875 16.984375 
Q 4.828125 25.4375 4.828125 34.859375 
z
M 14.59375 34.71875 
Q 14.59375 21.78125 21.546875 14.328125 
Q 28.515625 6.890625 39.015625 6.890625 
Q 49.703125 6.890625 56.609375 14.40625 
Q 63.53125 21.921875 63.53125 35.75 
Q 63.53125 44.484375 60.578125 51 
Q 57.625 57.515625 51.921875 61.109375 
Q 46.234375 64.703125 39.15625 64.703125 
Q 29.109375 64.703125 21.84375 57.78125 
Q 14.59375 50.875 14.59375 34.71875 
z
" id="ArialMT-79"/>
     <path d="M 8.015625 0 
L 8.015625 71.578125 
L 17.484375 71.578125 
L 17.484375 42.1875 
L 54.6875 42.1875 
L 54.6875 71.578125 
L 64.15625 71.578125 
L 64.15625 0 
L 54.6875 0 
L 54.6875 33.734375 
L 17.484375 33.734375 
L 17.484375 0 
z
" id="ArialMT-72"/>
     <path d="M 0.734375 0 
L 19.671875 26.953125 
L 2.15625 51.859375 
L 13.140625 51.859375 
L 21.09375 39.703125 
Q 23.34375 36.234375 24.703125 33.890625 
Q 26.859375 37.109375 28.65625 39.59375 
L 37.40625 51.859375 
L 47.90625 51.859375 
L 29.984375 27.4375 
L 49.265625 0 
L 38.484375 0 
L 27.828125 16.109375 
L 25 20.453125 
L 11.375 0 
z
" id="ArialMT-120"/>
     <path d="M 7.421875 0 
L 7.421875 71.578125 
L 21.6875 71.578125 
L 38.625 20.90625 
Q 40.96875 13.8125 42.046875 10.296875 
Q 43.265625 14.203125 45.84375 21.78125 
L 62.984375 71.578125 
L 75.734375 71.578125 
L 75.734375 0 
L 66.609375 0 
L 66.609375 59.90625 
L 45.796875 0 
L 37.25 0 
L 16.546875 60.9375 
L 16.546875 0 
z
" id="ArialMT-77"/>
     <path d="M 7.328125 0 
L 7.328125 71.578125 
L 16.796875 71.578125 
L 16.796875 8.453125 
L 52.046875 8.453125 
L 52.046875 0 
z
" id="ArialMT-76"/>
     <path d="M 9.078125 0 
L 9.078125 10.015625 
L 19.09375 10.015625 
L 19.09375 0 
z
" id="ArialMT-46"/>
     <path d="M 3.078125 15.484375 
L 11.765625 16.84375 
Q 12.5 11.625 15.84375 8.84375 
Q 19.1875 6.0625 25.203125 6.0625 
Q 31.25 6.0625 34.171875 8.515625 
Q 37.109375 10.984375 37.109375 14.3125 
Q 37.109375 17.28125 34.515625 19 
Q 32.71875 20.171875 25.53125 21.96875 
Q 15.875 24.421875 12.140625 26.203125 
Q 8.40625 27.984375 6.46875 31.125 
Q 4.546875 34.28125 4.546875 38.09375 
Q 4.546875 41.546875 6.125 44.5 
Q 7.71875 47.46875 10.453125 49.421875 
Q 12.5 50.921875 16.03125 51.96875 
Q 19.578125 53.03125 23.640625 53.03125 
Q 29.734375 53.03125 34.34375 51.265625 
Q 38.96875 49.515625 41.15625 46.5 
Q 43.359375 43.5 44.1875 38.484375 
L 35.59375 37.3125 
Q 35.015625 41.3125 32.203125 43.546875 
Q 29.390625 45.796875 24.265625 45.796875 
Q 18.21875 45.796875 15.625 43.796875 
Q 13.03125 41.796875 13.03125 39.109375 
Q 13.03125 37.40625 14.109375 36.03125 
Q 15.1875 34.625 17.484375 33.6875 
Q 18.796875 33.203125 25.25 31.453125 
Q 34.578125 28.953125 38.25 27.359375 
Q 41.9375 25.78125 44.03125 22.75 
Q 46.140625 19.734375 46.140625 15.234375 
Q 46.140625 10.84375 43.578125 6.953125 
Q 41.015625 3.078125 36.171875 0.953125 
Q 31.34375 -1.171875 25.25 -1.171875 
Q 15.140625 -1.171875 9.84375 3.03125 
Q 4.546875 7.234375 3.078125 15.484375 
z
" id="ArialMT-115"/>
     <path d="M 21 0 
L 1.265625 51.859375 
L 10.546875 51.859375 
L 21.6875 20.796875 
Q 23.484375 15.765625 25 10.359375 
Q 26.171875 14.453125 28.265625 20.21875 
L 39.796875 51.859375 
L 48.828125 51.859375 
L 29.203125 0 
z
" id="ArialMT-118"/>
     <path d="M 4.984375 -4.296875 
L 13.53125 -5.5625 
Q 14.0625 -9.515625 16.5 -11.328125 
Q 19.78125 -13.765625 25.4375 -13.765625 
Q 31.546875 -13.765625 34.859375 -11.328125 
Q 38.1875 -8.890625 39.359375 -4.5 
Q 40.046875 -1.8125 39.984375 6.78125 
Q 34.234375 0 25.640625 0 
Q 14.9375 0 9.078125 7.71875 
Q 3.21875 15.4375 3.21875 26.21875 
Q 3.21875 33.640625 5.90625 39.90625 
Q 8.59375 46.1875 13.6875 49.609375 
Q 18.796875 53.03125 25.6875 53.03125 
Q 34.859375 53.03125 40.828125 45.609375 
L 40.828125 51.859375 
L 48.921875 51.859375 
L 48.921875 7.03125 
Q 48.921875 -5.078125 46.453125 -10.125 
Q 44 -15.1875 38.640625 -18.109375 
Q 33.296875 -21.046875 25.484375 -21.046875 
Q 16.21875 -21.046875 10.5 -16.875 
Q 4.78125 -12.703125 4.984375 -4.296875 
z
M 12.25 26.859375 
Q 12.25 16.65625 16.296875 11.96875 
Q 20.359375 7.28125 26.46875 7.28125 
Q 32.515625 7.28125 36.609375 11.9375 
Q 40.71875 16.609375 40.71875 26.5625 
Q 40.71875 36.078125 36.5 40.90625 
Q 32.28125 45.75 26.3125 45.75 
Q 20.453125 45.75 16.34375 40.984375 
Q 12.25 36.234375 12.25 26.859375 
z
" id="ArialMT-103"/>
    </defs>
    <g style="fill:#262626;" transform="translate(134.974671 20.287921)scale(0.18 -0.18)">
     <use xlink:href="#ArialMT-79"/>
     <use x="77.783203" xlink:href="#ArialMT-72"/>
     <use x="150" xlink:href="#ArialMT-120"/>
     <use x="200" xlink:href="#ArialMT-95"/>
     <use x="255.615234" xlink:href="#ArialMT-77"/>
     <use x="338.916016" xlink:href="#ArialMT-76"/>
     <use x="394.53125" xlink:href="#ArialMT-46"/>
     <use x="422.314453" xlink:href="#ArialMT-115"/>
     <use x="472.314453" xlink:href="#ArialMT-118"/>
     <use x="522.314453" xlink:href="#ArialMT-103"/>
    </g>
   </g>
  </g>
  <g id="legend_1">
   <g id="text_10">
    <!-- ads_trans -->
    <defs>
     <path d="M 6.5 0 
L 6.5 51.859375 
L 14.40625 51.859375 
L 14.40625 44 
Q 17.4375 49.515625 20 51.265625 
Q 22.5625 53.03125 25.640625 53.03125 
Q 30.078125 53.03125 34.671875 50.203125 
L 31.640625 42.046875 
Q 28.421875 43.953125 25.203125 43.953125 
Q 22.3125 43.953125 20.015625 42.21875 
Q 17.71875 40.484375 16.75 37.40625 
Q 15.28125 32.71875 15.28125 27.15625 
L 15.28125 0 
z
" id="ArialMT-114"/>
     <path d="M 6.59375 0 
L 6.59375 51.859375 
L 14.5 51.859375 
L 14.5 44.484375 
Q 20.21875 53.03125 31 53.03125 
Q 35.6875 53.03125 39.625 51.34375 
Q 43.5625 49.65625 45.515625 46.921875 
Q 47.46875 44.1875 48.25 40.4375 
Q 48.734375 37.984375 48.734375 31.890625 
L 48.734375 0 
L 39.9375 0 
L 39.9375 31.546875 
Q 39.9375 36.921875 38.90625 39.578125 
Q 37.890625 42.234375 35.28125 43.8125 
Q 32.671875 45.40625 29.15625 45.40625 
Q 23.53125 45.40625 19.453125 41.84375 
Q 15.375 38.28125 15.375 28.328125 
L 15.375 0 
z
" id="ArialMT-110"/>
    </defs>
    <g style="fill:#262626;" transform="translate(286.413875 136.285406)scale(0.153 -0.153)">
     <use xlink:href="#ArialMT-97"/>
     <use x="55.615234" xlink:href="#ArialMT-100"/>
     <use x="111.230469" xlink:href="#ArialMT-115"/>
     <use x="161.230469" xlink:href="#ArialMT-95"/>
     <use x="216.845703" xlink:href="#ArialMT-116"/>
     <use x="244.628906" xlink:href="#ArialMT-114"/>
     <use x="277.929688" xlink:href="#ArialMT-97"/>
     <use x="333.544922" xlink:href="#ArialMT-110"/>
     <use x="389.160156" xlink:href="#ArialMT-115"/>
    </g>
   </g>
   <g id="PathCollection_2">
    <g>
     <use style="fill:#4c72b0;stroke:#1a1a1a;" x="306.989984" xlink:href="#m45cdf0b7ce" y="155.055422"/>
    </g>
   </g>
   <g id="text_11">
    <!-- O -->
    <g style="fill:#262626;" transform="translate(336.689984 159.386672)scale(0.165 -0.165)">
     <use xlink:href="#ArialMT-79"/>
    </g>
   </g>
  </g>
 </g>
 <defs>
  <clipPath id="p0454b17873">
   <rect height="194.658534" width="194.658534" x="89.656966" y="26.287921"/>
  </clipPath>
 </defs>
</svg>
